<svg width="20" height="20" viewBox="0 0 20 20" fill="none" xmlns="http://www.w3.org/2000/svg">
<path d="M9.1416 1.66666H7.47493C3.30827 1.66666 1.6416 3.33332 1.6416 7.49999V12.5C1.6416 16.6667 3.30827 18.3333 7.47493 18.3333H12.4749C16.6416 18.3333 18.3083 16.6667 18.3083 12.5V10.8333" stroke="#172A68" stroke-opacity="0.75" stroke-width="1.5" stroke-linecap="round" stroke-linejoin="round"/>
<path d="M18.2329 2.96666C17.2079 5.52499 14.6329 9.00832 12.4829 10.7333L11.1662 11.7833C10.9995 11.9083 10.8329 12.0083 10.6412 12.0833C10.6412 11.9583 10.6329 11.8333 10.6162 11.7C10.5412 11.1417 10.2912 10.6167 9.84121 10.175C9.38288 9.71666 8.83288 9.45832 8.26621 9.38332C8.13288 9.37499 7.99954 9.36666 7.86621 9.37499C7.94121 9.16666 8.04954 8.97499 8.19121 8.81666L9.24121 7.49999C10.9662 5.34999 14.4579 2.75832 17.0079 1.73332C17.3995 1.58332 17.7829 1.69999 18.0245 1.94166C18.2745 2.19166 18.3912 2.57499 18.2329 2.96666Z" stroke="#172A68" stroke-opacity="0.75" stroke-width="1.5" stroke-linecap="round" stroke-linejoin="round"/>
<path d="M10.6504 12.075C10.6504 12.8083 10.3671 13.5083 9.84207 14.0417C9.43374 14.45 8.88374 14.7333 8.2254 14.8167L6.58374 14.9917C5.69207 15.0917 4.9254 14.3333 5.0254 13.425L5.2004 11.7833C5.35874 10.325 6.5754 9.39167 7.8754 9.36667C8.00874 9.35834 8.14207 9.36667 8.2754 9.37501C8.84207 9.45001 9.39207 9.70834 9.8504 10.1667C10.3004 10.6167 10.5504 11.1333 10.6254 11.6917C10.6421 11.825 10.6504 11.9583 10.6504 12.075Z" stroke="#172A68" stroke-opacity="0.75" stroke-width="1.5" stroke-linecap="round" stroke-linejoin="round"/>
<path d="M13.1837 9.98335C13.1837 8.24168 11.7754 6.82501 10.0254 6.82501" stroke="#172A68" stroke-opacity="0.75" stroke-width="1.5" stroke-linecap="round" stroke-linejoin="round"/>
</svg>
