<svg width="18" height="18" viewBox="0 0 18 18" fill="none" xmlns="http://www.w3.org/2000/svg">
<path d="M15.668 0.666626H7.33463C6.41547 0.666626 5.66797 1.41413 5.66797 2.33329V5.66663H2.33464C1.41547 5.66663 0.667969 6.41412 0.667969 7.33329V15.6666C0.667969 16.5858 1.41547 17.3333 2.33464 17.3333H10.668C11.5871 17.3333 12.3346 16.5858 12.3346 15.6666V12.3333H15.668C16.5871 12.3333 17.3346 11.5858 17.3346 10.6666V2.33329C17.3346 1.41413 16.5871 0.666626 15.668 0.666626ZM2.33464 15.6666V7.33329H10.668L10.6696 15.6666H2.33464ZM15.668 10.6666H12.3346V7.33329C12.3346 6.41412 11.5871 5.66663 10.668 5.66663H7.33463V2.33329H15.668V10.6666Z" fill="#172A68" fill-opacity="0.45"/>
</svg>
