<svg width="15" height="15" viewBox="0 0 15 15" fill="none" xmlns="http://www.w3.org/2000/svg">
<path d="M4.98438 7.62498H9.35938" stroke="#172A68" stroke-opacity="0.75" stroke-width="1.5" stroke-miterlimit="10" stroke-linecap="round" stroke-linejoin="round"/>
<path d="M4.98438 10.125H7.72188" stroke="#172A68" stroke-opacity="0.75" stroke-width="1.5" stroke-miterlimit="10" stroke-linecap="round" stroke-linejoin="round"/>
<path d="M6.23438 3.74994H8.73438C9.98438 3.74994 9.98438 3.12494 9.98438 2.49994C9.98438 1.24994 9.35938 1.24994 8.73438 1.24994H6.23438C5.60938 1.24994 4.98438 1.24994 4.98438 2.49994C4.98438 3.74994 5.60938 3.74994 6.23438 3.74994Z" stroke="#172A68" stroke-opacity="0.75" stroke-width="1.5" stroke-miterlimit="10" stroke-linecap="round" stroke-linejoin="round"/>
<path d="M10 2.51245C12.0812 2.62495 13.125 3.3937 13.125 6.24995V9.99995C13.125 12.4999 12.5 13.7499 9.375 13.7499H5.625C2.5 13.7499 1.875 12.4999 1.875 9.99995V6.24995C1.875 3.39995 2.91875 2.62495 5 2.51245" stroke="#172A68" stroke-opacity="0.75" stroke-width="1.5" stroke-miterlimit="10" stroke-linecap="round" stroke-linejoin="round"/>
</svg>
