<svg width="17" height="17" viewBox="0 0 17 17" fill="none" xmlns="http://www.w3.org/2000/svg">
<path d="M8.66675 0.666748C6.61585 0.672598 4.64554 1.46588 3.16275 2.88275V1.46675C3.16275 1.25457 3.07846 1.05109 2.92843 0.901063C2.7784 0.751033 2.57492 0.666748 2.36275 0.666748C2.15057 0.666748 1.94709 0.751033 1.79706 0.901063C1.64703 1.05109 1.56275 1.25457 1.56275 1.46675V5.06675C1.56275 5.27892 1.64703 5.4824 1.79706 5.63243C1.94709 5.78246 2.15057 5.86675 2.36275 5.86675H5.96275C6.17492 5.86675 6.3784 5.78246 6.52843 5.63243C6.67846 5.4824 6.76275 5.27892 6.76275 5.06675C6.76275 4.85457 6.67846 4.65109 6.52843 4.50106C6.3784 4.35103 6.17492 4.26675 5.96275 4.26675H4.04275C5.07137 3.19183 6.44235 2.50887 7.91997 2.33528C9.3976 2.16169 10.8895 2.50833 12.1393 3.31558C13.389 4.12284 14.3185 5.34028 14.7678 6.75858C15.2172 8.17688 15.1583 9.70743 14.6015 11.0871C14.0446 12.4667 13.0245 13.6092 11.7165 14.3182C10.4085 15.0272 8.89434 15.2583 7.43439 14.9718C5.97445 14.6853 4.65992 13.8992 3.71682 12.7485C2.77372 11.5978 2.26098 10.1545 2.26675 8.66675C2.26675 8.45457 2.18246 8.25109 2.03243 8.10106C1.8824 7.95103 1.67892 7.86675 1.46675 7.86675C1.25457 7.86675 1.05109 7.95103 0.901063 8.10106C0.751033 8.25109 0.666748 8.45457 0.666748 8.66675C0.666748 10.249 1.13594 11.7957 2.01499 13.1113C2.89404 14.4269 4.14347 15.4523 5.60528 16.0578C7.06709 16.6633 8.67562 16.8217 10.2275 16.513C11.7793 16.2043 13.2048 15.4424 14.3236 14.3236C15.4424 13.2048 16.2043 11.7793 16.513 10.2275C16.8217 8.67562 16.6633 7.06709 16.0578 5.60528C15.4523 4.14347 14.4269 2.89404 13.1113 2.01499C11.7957 1.13594 10.249 0.666748 8.66675 0.666748ZM8.66675 5.46675C8.45457 5.46675 8.25109 5.55103 8.10106 5.70106C7.95103 5.85109 7.86675 6.05457 7.86675 6.26675V8.66675C7.86675 8.87892 7.95103 9.0824 8.10106 9.23243C8.25109 9.38246 8.45457 9.46675 8.66675 9.46675H10.2667C10.4789 9.46675 10.6824 9.38246 10.8324 9.23243C10.9825 9.0824 11.0667 8.87892 11.0667 8.66675C11.0667 8.45457 10.9825 8.25109 10.8324 8.10106C10.6824 7.95103 10.4789 7.86675 10.2667 7.86675H9.46675V6.26675C9.46675 6.05457 9.38246 5.85109 9.23243 5.70106C9.0824 5.55103 8.87892 5.46675 8.66675 5.46675Z" fill="white"/>
</svg>
