<svg width="16" height="16" viewBox="0 0 16 16" fill="none" xmlns="http://www.w3.org/2000/svg">
<g clip-path="url(#clip0_1382_1855)">
<path fill-rule="evenodd" clip-rule="evenodd" d="M8.76172 3H4.76172C4.76172 1.897 5.65872 1 6.76172 1C7.86472 1 8.76172 1.897 8.76172 3M3.76172 3H1.26172C0.985219 3 0.761719 3.224 0.761719 3.5V15.5C0.761719 15.776 0.985219 16 1.26172 16H12.2617C12.5382 16 12.7617 15.776 12.7617 15.5V13.121L12.3222 13.5605C12.0392 13.844 11.6622 14 11.2617 14H9.76172C8.93472 14 8.26172 13.327 8.26172 12.5V11C8.26172 10.5995 8.41822 10.2225 8.70122 9.9395L12.7012 5.9395C12.7197 5.9205 12.7422 5.9075 12.7617 5.8895V3.5C12.7617 3.224 12.5382 3 12.2617 3H9.76172C9.76172 1.3455 8.41622 0 6.76172 0C5.10722 0 3.76172 1.3455 3.76172 3Z" fill="#2271b1"/>
<path fill-rule="evenodd" clip-rule="evenodd" d="M13.3318 6.81707L9.22936 10.9196C9.13295 11.016 9.0791 11.1462 9.0791 11.2821V12.8205C9.0791 13.1036 9.30833 13.3334 9.59191 13.3334H11.1303C11.2668 13.3334 11.397 13.2795 11.4929 13.1831L15.5954 9.08061C15.7959 8.88011 15.7959 8.55601 15.5954 8.3555L14.057 6.81707C13.8564 6.61656 13.5323 6.61656 13.3318 6.81707" fill="#2271b1"/>
</g>
<defs>
<clipPath id="clip0_1382_1855">
<rect width="16" height="16" fill="#2271b1"/>
</clipPath>
</defs>
</svg>
