<svg width="15" height="17" viewBox="0 0 15 17" fill="none" xmlns="http://www.w3.org/2000/svg">
<path d="M13.3333 4.5H12.8333V5V15C12.8333 15.3094 12.7104 15.6062 12.4916 15.825C12.2728 16.0438 11.9761 16.1667 11.6667 16.1667H3.33333C3.02391 16.1667 2.72717 16.0438 2.50838 15.825C2.28958 15.6062 2.16667 15.3094 2.16667 15V5V4.5H1.66667H0.5V3.83333H3.33333H3.83333V3.33333V1.66667C3.83333 1.35725 3.95625 1.0605 4.17504 0.841709C4.39383 0.622916 4.69058 0.5 5 0.5H10C10.3094 0.5 10.6062 0.622916 10.825 0.841709C11.0437 1.0605 11.1667 1.35725 11.1667 1.66667V3.33333V3.83333H11.6667H14.5V4.5H13.3333ZM5 1.16667H4.5V1.66667V3.33333V3.83333H5H10H10.5V3.33333V1.66667V1.16667H10H5ZM12.1667 5V4.5H11.6667H4.16667H3.33333H2.83333V5V15V15.5H3.33333H11.6667H12.1667V15V5Z" stroke="white"/>
<path d="M5.5 7.16669H6.16667V12.8334H5.5V7.16669ZM8.83333 7.16669H9.5V12.8334H8.83333V7.16669Z" stroke="white"/>
</svg>
