<svg width="20" height="20" viewBox="0 0 20 20" fill="none" xmlns="http://www.w3.org/2000/svg">
<path d="M15.8695 6.16751C16.1845 5.85251 16.3579 5.43417 16.3579 4.98917C16.3579 4.54417 16.1845 4.12584 15.8695 3.81084L14.5479 2.48917C14.2329 2.17417 13.8145 2.00084 13.3695 2.00084C12.9245 2.00084 12.5062 2.17417 12.192 2.48834L3.33203 11.3208V15H7.00953L15.8695 6.16751ZM13.3695 3.66751L14.692 4.98834L13.367 6.30834L12.0454 4.98751L13.3695 3.66751ZM4.9987 13.3333V12.0125L10.8654 6.16417L12.187 7.48584L6.3212 13.3333H4.9987ZM3.33203 16.6667H16.6654V18.3333H3.33203V16.6667Z" fill="#172A68" fill-opacity="0.45"/>
</svg>
