<svg width="15" height="15" viewBox="0 0 15 15" fill="none" xmlns="http://www.w3.org/2000/svg">
<path d="M7.5 14C11.0899 14 14 11.0899 14 7.5C14 3.91015 11.0899 1 7.5 1C3.91015 1 1 3.91015 1 7.5C1 11.0899 3.91015 14 7.5 14Z" stroke="#0B56C5" stroke-width="1.2" stroke-linecap="round" stroke-linejoin="round"/>
<path d="M5.6084 5.54998C5.76122 5.11556 6.06285 4.74925 6.45987 4.51592C6.85689 4.28258 7.32368 4.19729 7.77756 4.27514C8.23145 4.353 8.64313 4.58897 8.9397 4.94127C9.23627 5.29358 9.39858 5.73947 9.3979 6.19998C9.3979 7.49998 7.4479 8.14998 7.4479 8.14998" stroke="#0B56C5" stroke-width="1.2" stroke-linecap="round" stroke-linejoin="round"/>
<path d="M7.5 10.75H7.506" stroke="#0B56C5" stroke-width="1.2" stroke-linecap="round" stroke-linejoin="round"/>
</svg>
