<svg width="52" height="52" viewBox="0 0 52 52" fill="none" xmlns="http://www.w3.org/2000/svg">
<path d="M18.4173 41.1667H17.334C8.66732 41.1667 4.33398 39 4.33398 28.1667V17.3333C4.33398 8.66668 8.66732 4.33334 17.334 4.33334H34.6673C43.334 4.33334 47.6673 8.66668 47.6673 17.3333V28.1667C47.6673 36.8333 43.334 41.1667 34.6673 41.1667H33.584C32.9123 41.1667 32.2623 41.4917 31.8507 42.0333L28.6007 46.3667C27.1707 48.2733 24.8307 48.2733 23.4007 46.3667L20.1507 42.0333C19.804 41.5567 19.0023 41.1667 18.4173 41.1667Z" stroke="#F25A87" stroke-width="2.5" stroke-miterlimit="10" stroke-linecap="round" stroke-linejoin="round"/>
<path d="M15.166 17.3333H36.8327" stroke="#F25A87" stroke-width="2.5" stroke-linecap="round" stroke-linejoin="round"/>
<path d="M15.166 28.1667H28.166" stroke="#F25A87" stroke-width="2.5" stroke-linecap="round" stroke-linejoin="round"/>
</svg>
