<svg width="24" height="24" viewBox="0 0 24 24" fill="none" xmlns="http://www.w3.org/2000/svg">
<path fill-rule="evenodd" clip-rule="evenodd" d="M12 9.06665C13.6199 9.06665 14.9333 10.3801 14.9333 12C14.9333 13.6199 13.6199 14.9333 12 14.9333C10.3801 14.9333 9.06665 13.6199 9.06665 12C9.06665 10.3801 10.3801 9.06665 12 9.06665V9.06665Z" stroke="#F25A87" stroke-width="1.5" stroke-linecap="round" stroke-linejoin="round"/>
<path fill-rule="evenodd" clip-rule="evenodd" d="M23 12C23 11.1904 22.3437 10.5333 21.5333 10.5333H19.9273C19.7183 9.39813 19.2754 8.34507 18.6447 7.42987L19.7785 6.29613C20.3512 5.7234 20.3512 4.795 19.7785 4.22227C19.2057 3.64953 18.2773 3.64953 17.7046 4.22227L16.5701 5.356C15.6549 4.7246 14.6019 4.28167 13.4667 4.07267V2.46667C13.4667 1.65707 12.8103 1 12 1C11.1897 1 10.5333 1.65633 10.5333 2.46667V4.07267C9.39813 4.28167 8.34507 4.7246 7.42987 5.35527L6.29613 4.22153C5.7234 3.6488 4.795 3.6488 4.22227 4.22153C3.64953 4.79427 3.64953 5.72267 4.22227 6.2954L5.356 7.42987C4.7246 8.34507 4.28167 9.39813 4.07267 10.5333H2.46667C1.65707 10.5333 1 11.1897 1 12C1 12.8103 1.65633 13.4667 2.46667 13.4667H4.07267C4.28167 14.6019 4.7246 15.6549 5.35527 16.5701L4.22153 17.7039C3.6488 18.2766 3.6488 19.205 4.22153 19.7777C4.79427 20.3505 5.72267 20.3505 6.2954 19.7777L7.42913 18.644C8.34433 19.2747 9.39667 19.7176 10.5326 19.9266V21.5333C10.5326 22.3437 11.1889 23 11.9993 23C12.8089 23 13.4659 22.3437 13.4659 21.5333V19.9273C14.6011 19.7183 15.6542 19.2754 16.5694 18.6447L17.7031 19.7785C18.2759 20.3512 19.2043 20.3512 19.777 19.7785C20.3497 19.2057 20.3497 18.2773 19.777 17.7046L18.6433 16.5709C19.2739 15.6557 19.7169 14.6033 19.9259 13.4674H21.5333C22.3437 13.4667 23 12.8103 23 12V12Z" stroke="#F25A87" stroke-width="1.5" stroke-linecap="round" stroke-linejoin="round"/>
</svg>
