<svg fill="none" height="24" viewBox="0 0 24 24" width="24" xmlns="http://www.w3.org/2000/svg"><g stroke="#8791b1" stroke-linecap="round" stroke-linejoin="round" stroke-width="1.5"><path d="m21 5.98c-3.33-.33-6.68-.5-10.02-.5-1.98 0-3.96.1-5.94.3l-2.04.2"/><path d="m8.5 4.97.22-1.31c.16-.95.28-1.66 1.97-1.66h2.62c1.69 0 1.82.75 1.97 1.67l.22 1.3"/><path d="m18.85 9.14-.65 10.07c-.11 1.57-.2 2.79-2.99 2.79h-6.42001c-2.79 0-2.88-1.22-2.99-2.79l-.65-10.07"/><path d="m10.33 16.5h3.33"/><path d="m9.5 12.5h5"/></g></svg>