<svg width="17" height="18" viewBox="0 0 17 18" fill="none" xmlns="http://www.w3.org/2000/svg">
<path d="M8 13C9.671 13 11 11.669 11 10C11 8.331 9.671 7 8 7C6.329 7 5 8.331 5 10C5 11.669 6.329 13 8 13Z" fill="#172A68" fill-opacity="0.45"/>
<path d="M16.0353 8.26739C15.8232 7.23091 15.4088 6.24643 14.8158 5.3703C14.2331 4.50835 13.4907 3.76598 12.6288 3.1833C11.7525 2.59049 10.7681 2.1761 9.73169 1.9638C9.18728 1.85339 8.63298 1.79911 8.07749 1.8018V0L4.5 2.7L8.07749 5.4V3.6018C8.51309 3.6 8.94869 3.6414 9.36899 3.7278C10.1745 3.89286 10.9397 4.21489 11.6208 4.6755C12.2925 5.12841 12.8707 5.70656 13.3236 6.3783C14.0268 7.418 14.4018 8.64482 14.4 9.89999C14.3998 10.7423 14.2315 11.5761 13.905 12.3525C13.7462 12.7265 13.5521 13.0845 13.3254 13.4217C13.0978 13.7568 12.8393 14.0699 12.5532 14.3568C11.682 15.2264 10.576 15.8228 9.37079 16.0731C8.53265 16.2423 7.66914 16.2423 6.831 16.0731C6.0251 15.9079 5.25963 15.5855 4.5783 15.1245C3.90733 14.672 3.32981 14.0945 2.8773 13.4235C2.1749 12.3827 1.79973 11.1556 1.8 9.89999H0C0.000957754 11.5143 0.483197 13.0917 1.3851 14.4306C1.96816 15.2911 2.70977 16.0327 3.5703 16.6158C4.90735 17.5207 6.4855 18.003 8.09999 18C8.64834 17.9999 9.19529 17.9448 9.73259 17.8353C10.7682 17.6214 11.7521 17.2072 12.6288 16.6158C13.0592 16.3257 13.4604 15.9945 13.8267 15.6267C14.1935 15.2589 14.5249 14.8576 14.8167 14.4279C15.7209 13.0912 16.2028 11.5138 16.2 9.89999C16.1999 9.35165 16.1448 8.8047 16.0353 8.26739V8.26739Z" fill="#172A68" fill-opacity="0.45"/>
</svg>
