<svg width="20" height="21" viewBox="0 0 20 21" fill="none" xmlns="http://www.w3.org/2000/svg">
<path d="M2.5 8.09167V12.9C2.5 14.6667 2.5 14.6667 4.16667 15.7917L8.75 18.4417C9.44167 18.8417 10.5667 18.8417 11.25 18.4417L15.8333 15.7917C17.5 14.6667 17.5 14.6667 17.5 12.9083V8.09167C17.5 6.33333 17.5 6.33334 15.8333 5.20834L11.25 2.55834C10.5667 2.15834 9.44167 2.15834 8.75 2.55834L4.16667 5.20834C2.5 6.33334 2.5 6.33333 2.5 8.09167Z" stroke="#172A68" stroke-opacity="0.75" stroke-width="1.5" stroke-linecap="round" stroke-linejoin="round"/>
<path d="M10 13C11.3807 13 12.5 11.8807 12.5 10.5C12.5 9.11929 11.3807 8 10 8C8.61929 8 7.5 9.11929 7.5 10.5C7.5 11.8807 8.61929 13 10 13Z" stroke="#172A68" stroke-opacity="0.75" stroke-width="1.5" stroke-linecap="round" stroke-linejoin="round"/>
</svg>
