<svg width="28" height="28" viewBox="0 0 28 28" fill="none" xmlns="http://www.w3.org/2000/svg">
<rect width="28" height="28" rx="4" fill="white"/>
<path fill-rule="evenodd" clip-rule="evenodd" d="M7 14.0242C7 11.6837 8.14733 9.61851 9.93716 8.3794C10.5797 7.92047 11.5893 7.82868 12.0482 8.3794C12.6449 9.15958 11.5893 10.261 12.0482 10.9035C13.2874 12.418 15.9033 9.43494 18.9781 10.9035C21.181 12.005 20.8597 14.8962 20.5844 15.9518C19.7583 18.843 17.0965 21 13.9299 21C10.1207 20.9541 7 17.8793 7 14.0242V14.0242Z" stroke="#0A5AF5" stroke-width="1.5" stroke-linecap="round" stroke-linejoin="round"/>
<path fill-rule="evenodd" clip-rule="evenodd" d="M17.3147 12.978C18.0754 12.978 18.6919 13.5945 18.6919 14.3552C18.6919 15.1158 18.0754 15.7323 17.3147 15.7323C16.554 15.7323 15.9375 15.1158 15.9375 14.3552C15.9375 13.5945 16.554 12.978 17.3147 12.978Z" stroke="#0A5AF5" stroke-width="1.5" stroke-linecap="round" stroke-linejoin="round"/>
<path fill-rule="evenodd" clip-rule="evenodd" d="M9.75309 12.6475C10.2604 12.6475 10.6712 13.0583 10.6712 13.5656C10.6712 14.0729 10.2604 14.4837 9.75309 14.4837C9.24582 14.4837 8.83496 14.0729 8.83496 13.5656C8.83496 13.0583 9.24582 12.6475 9.75309 12.6475Z" fill="#0A5AF5"/>
<path fill-rule="evenodd" clip-rule="evenodd" d="M11.1681 15.4155C11.6754 15.4155 12.0863 15.8263 12.0863 16.3336C12.0863 16.8409 11.6754 17.2517 11.1681 17.2517C10.6609 17.2517 10.25 16.8409 10.25 16.3336C10.25 15.8263 10.6609 15.4155 11.1681 15.4155V15.4155Z" fill="#0A5AF5"/>
<path fill-rule="evenodd" clip-rule="evenodd" d="M14.4181 17.0405C14.9254 17.0405 15.3363 17.4513 15.3363 17.9586C15.3363 18.4659 14.9254 18.8767 14.4181 18.8767C13.9109 18.8767 13.5 18.4659 13.5 17.9586C13.5 17.4513 13.9109 17.0405 14.4181 17.0405Z" fill="#0A5AF5"/>
</svg>
