<svg width="28" height="28" viewBox="0 0 28 28" fill="none" xmlns="http://www.w3.org/2000/svg">
<path fill-rule="evenodd" clip-rule="evenodd" d="M6 9.59998C6 8.49541 6.89543 7.59998 8 7.59998H20C21.1046 7.59998 22 8.49541 22 9.59998V20C22 21.1045 21.1046 22 20 22H8C6.89543 22 6 21.1045 6 20V9.59998Z" stroke="#0A5AF5" stroke-width="1.5" stroke-linecap="round" stroke-linejoin="round"/>
<path d="M14 6V9.2" stroke="#0A5AF5" stroke-width="1.5" stroke-linecap="round" stroke-linejoin="round"/>
<path d="M9.7334 6V9.2" stroke="#0A5AF5" stroke-width="1.5" stroke-linecap="round" stroke-linejoin="round"/>
<path d="M18.2666 6V9.2" stroke="#0A5AF5" stroke-width="1.5" stroke-linecap="round" stroke-linejoin="round"/>
<path d="M12.2442 12.4545V19H11.0585V13.6083H11.0202L9.48926 14.5863V13.4996L11.116 12.4545H12.2442Z" fill="#0A5AF5"/>
<path d="M13.9062 19V18.1435L16.1785 15.9158C16.3959 15.6964 16.577 15.5014 16.7219 15.331C16.8667 15.1605 16.9754 14.9954 17.0479 14.8356C17.1203 14.6758 17.1565 14.5053 17.1565 14.3242C17.1565 14.1175 17.1096 13.9407 17.0159 13.7937C16.9221 13.6445 16.7932 13.5295 16.6292 13.4485C16.4651 13.3675 16.2787 13.3271 16.0699 13.3271C15.8547 13.3271 15.6661 13.3718 15.5042 13.4613C15.3422 13.5486 15.2165 13.6733 15.127 13.8352C15.0397 13.9972 14.996 14.19 14.996 14.4137H13.8678C13.8678 13.9982 13.9626 13.6371 14.1523 13.3303C14.3419 13.0234 14.6029 12.7859 14.9353 12.6175C15.2698 12.4492 15.6533 12.3651 16.0858 12.3651C16.5248 12.3651 16.9104 12.4471 17.2428 12.6111C17.5752 12.7752 17.833 13 18.0162 13.2855C18.2016 13.571 18.2943 13.897 18.2943 14.2635C18.2943 14.5085 18.2474 14.7493 18.1537 14.9858C18.0599 15.2223 17.8948 15.4844 17.6583 15.772C17.4239 16.0597 17.0947 16.408 16.6707 16.8171L15.5425 17.9645V18.0092H18.3934V19H13.9062Z" fill="#0A5AF5"/>
</svg>
