<svg fill="none" height="17" viewBox="0 0 17 17" width="17" xmlns="http://www.w3.org/2000/svg"><g stroke="#292d32" stroke-linecap="round" stroke-linejoin="round" stroke-width="1.2"><path d="m15.4489 2.79099c-1.0908 2.72-3.825 6.4175-6.11291 8.25211l-1.39542 1.1191c-.17708.1275-.35416.2409-.5525.3188 0-.1275-.00708-.2692-.02833-.4038-.07792-.595-.34708-1.1475-.82167-1.622-.48166-.48171-1.06958-.76504-1.67166-.84296-.14167-.00708-.28334-.02125-.425-.00708.07791-.21959.19833-.425.34708-.595l1.105-1.39542c1.8275-2.28792 5.53921-5.03625 8.25211-6.12.4179-.15583.8216-.0425 1.0766.21958.2692.26209.3967.66584.2267 1.07667z"/><path d="m7.38807 12.4808c0 .7792-.2975 1.5229-.85708 2.0896-.43209.4321-1.02.7296-1.72125.8217l-1.7425.1912c-.94917.1063-1.76375-.7012-1.65042-1.6646l.19125-1.7425c.17-1.5512 1.46625-2.54288 2.84042-2.57122.14166-.00708.29041 0 .425.00709.60208.07791 1.19.35416 1.67166.84293.47459.4746.74375 1.0271.82167 1.6221.00708.1346.02125.2691.02125.4037z"/><path d="m10.0867 10.2498c0-1.84872-1.50162-3.35039-3.35037-3.35039"/></g></svg>