<svg fill="none" height="17" viewBox="0 0 17 17" width="17" xmlns="http://www.w3.org/2000/svg"><g stroke="#292d32" stroke-linecap="round" stroke-linejoin="round" stroke-miterlimit="10" stroke-width="1.2"><path d="m8.5 10.625c1.1736 0 2.125-.9514 2.125-2.125 0-1.17361-.9514-2.125-2.125-2.125-1.17361 0-2.125.95139-2.125 2.125 0 1.1736.95139 2.125 2.125 2.125z"/><path d="m1.41602 9.12319v-1.24667c0-.73667.60208-1.34583 1.34583-1.34583 1.28208 0 1.80625-.90667 1.16167-2.01875-.36834-.6375-.14875-1.46625.49583-1.83459l1.22542-.70125c.55958-.33291 1.28208-.13458 1.615.425l.07791.13459c.6375 1.11208 1.68584 1.11208 2.33042 0l.07792-.13459c.33288-.55958 1.05538-.75791 1.61498-.425l1.2254.70125c.6446.36834.8642 1.19709.4959 1.83459-.6446 1.11208-.1205 2.01875 1.1616 2.01875.7367 0 1.3459.60208 1.3459 1.34583v1.24667c0 .73666-.6021 1.34581-1.3459 1.34581-1.2821 0-1.8062.9067-1.1616 2.0188.3683.6446.1487 1.4662-.4959 1.8346l-1.2254.7012c-.5596.3329-1.2821.1346-1.61498-.425l-.07792-.1346c-.6375-1.1121-1.68583-1.1121-2.33042 0l-.07791.1346c-.33292.5596-1.05542.7579-1.615.425l-1.22542-.7012c-.64458-.3684-.86417-1.1971-.49583-1.8346.64458-1.1121.12041-2.0188-1.16167-2.0188-.74375 0-1.34583-.60915-1.34583-1.34581z"/></g></svg>