<svg width="28" height="28" viewBox="0 0 28 28" fill="none" xmlns="http://www.w3.org/2000/svg">
<rect width="28" height="28" rx="4" fill="white"/>
<path d="M20.4002 6H10.8002C9.9178 6 9.2002 6.7176 9.2002 7.6V17.2C9.2002 18.0824 9.9178 18.8 10.8002 18.8H20.4002C21.2826 18.8 22.0002 18.0824 22.0002 17.2V7.6C22.0002 6.7176 21.2826 6 20.4002 6ZM10.8002 17.2V7.6H20.4002L20.4018 17.2H10.8002Z" fill="#0B56C5"/>
<path d="M7.6 10.8H6V20.4C6 21.2824 6.7176 22 7.6 22H17.2V20.4H7.6V10.8Z" fill="#0B56C5"/>
<path d="M13.9996 14L13.1996 13.2L11.5996 15.6H19.5996L16.3996 10.8L13.9996 14Z" fill="#0B56C5"/>
</svg>
