<svg width="28" height="28" viewBox="0 0 28 28" fill="none" xmlns="http://www.w3.org/2000/svg">
<path fill-rule="evenodd" clip-rule="evenodd" d="M20.1379 15.0954C20.1379 18.0666 16.3516 22.5234 14.7603 24.2653C14.3846 24.6766 13.7533 24.6766 13.3776 24.2653C11.7863 22.5234 8 18.0666 8 15.0954C8 11.2383 11.136 9 14.069 9C17.0019 9 20.1379 11.2383 20.1379 15.0954Z" stroke="#0A5AF5" stroke-width="1.5" stroke-linecap="round" stroke-linejoin="round"/>
<path fill-rule="evenodd" clip-rule="evenodd" d="M12.4136 15.0692C12.4136 14.155 13.1545 13.414 14.0687 13.414C14.983 13.414 15.7239 14.155 15.7239 15.0692C15.7239 15.9834 14.983 16.7243 14.0687 16.7243C13.1545 16.7243 12.4136 15.9834 12.4136 15.0692V15.0692Z" stroke="#0A5AF5" stroke-width="1.5" stroke-linecap="round" stroke-linejoin="round"/>
</svg>
