<svg width="28" height="28" viewBox="0 0 28 28" fill="none" xmlns="http://www.w3.org/2000/svg">
<rect width="28" height="28" rx="4" fill="white"/>
<path d="M5.15 10.255L7.745 8.8H9.245V19H7.475V10.78L5.945 11.62L5.15 10.255ZM17.4343 19H11.2543V17.575C11.2543 16.855 11.3493 16.255 11.5393 15.775C11.7293 15.285 11.9843 14.885 12.3043 14.575C12.6243 14.255 12.9743 14 13.3543 13.81L14.3743 13.3C14.7643 13.1 15.0793 12.89 15.3193 12.67C15.5693 12.44 15.6943 12.145 15.6943 11.785V11.515C15.6943 11.145 15.5643 10.855 15.3043 10.645C15.0543 10.425 14.6493 10.315 14.0893 10.315C13.7493 10.315 13.4043 10.365 13.0543 10.465C12.7143 10.565 12.2993 10.705 11.8093 10.885L11.2543 9.34C11.8143 9.09 12.3243 8.915 12.7843 8.815C13.2543 8.705 13.7093 8.65 14.1493 8.65C14.9593 8.65 15.6043 8.78 16.0843 9.04C16.5743 9.3 16.9243 9.65 17.1343 10.09C17.3543 10.52 17.4643 10.995 17.4643 11.515V11.785C17.4643 12.325 17.3543 12.785 17.1343 13.165C16.9243 13.545 16.6443 13.865 16.2943 14.125C15.9443 14.385 15.5643 14.615 15.1543 14.815L14.1343 15.325C13.7643 15.505 13.4893 15.755 13.3093 16.075C13.1393 16.395 13.0443 16.805 13.0243 17.305H17.4343V19ZM24.9175 16.225C24.9175 16.755 24.8075 17.245 24.5875 17.695C24.3675 18.135 24.0125 18.49 23.5225 18.76C23.0425 19.02 22.3975 19.15 21.5875 19.15C21.1275 19.15 20.6475 19.095 20.1475 18.985C19.6575 18.875 19.1175 18.69 18.5275 18.43L19.0825 16.885C19.6125 17.075 20.0575 17.225 20.4175 17.335C20.7875 17.435 21.1575 17.485 21.5275 17.485C22.0575 17.485 22.4575 17.38 22.7275 17.17C23.0075 16.95 23.1475 16.61 23.1475 16.15V15.94C23.1475 15.56 23.0275 15.255 22.7875 15.025C22.5575 14.785 22.1975 14.665 21.7075 14.665H20.1175V13.045H21.7075C22.1775 13.045 22.5225 12.935 22.7425 12.715C22.9625 12.485 23.0725 12.19 23.0725 11.83V11.62C23.0725 11.16 22.9425 10.83 22.6825 10.63C22.4325 10.42 22.0625 10.315 21.5725 10.315C21.2225 10.315 20.8675 10.365 20.5075 10.465C20.1575 10.555 19.7325 10.695 19.2325 10.885L18.6775 9.34C19.2375 9.08 19.7575 8.9 20.2375 8.8C20.7175 8.7 21.1825 8.65 21.6325 8.65C22.4025 8.65 23.0225 8.78 23.4925 9.04C23.9625 9.3 24.3025 9.65 24.5125 10.09C24.7325 10.53 24.8425 11.015 24.8425 11.545V11.755C24.8425 12.225 24.7225 12.64 24.4825 13C24.2525 13.35 23.9475 13.63 23.5675 13.84C23.9775 14.06 24.3025 14.355 24.5425 14.725C24.7925 15.085 24.9175 15.515 24.9175 16.015V16.225Z" fill="#0B56C5"/>
</svg>
