<svg width="28" height="28" viewBox="0 0 28 28" fill="none" xmlns="http://www.w3.org/2000/svg">
<rect y="-0.000366211" width="28" height="28" rx="4" fill="white"/>
<path d="M20 6.99963H7.55556C6.69767 6.99963 6 7.6973 6 8.55519V19.4441C6 20.302 6.69767 20.9996 7.55556 20.9996H20C20.8579 20.9996 21.5556 20.302 21.5556 19.4441V8.55519C21.5556 7.6973 20.8579 6.99963 20 6.99963ZM7.55556 19.4441V8.55519H20L20.0016 19.4441H7.55556Z" fill="#172A68"/>
<path d="M9.11133 10.1107H18.4447V11.6663H9.11133V10.1107ZM9.11133 13.2218H18.4447V14.7774H9.11133V13.2218ZM9.11133 16.3329H13.778V17.8885H9.11133V16.3329Z" fill="#172A68"/>
</svg>
