<svg width="28" height="28" viewBox="0 0 28 28" fill="none" xmlns="http://www.w3.org/2000/svg">
<path d="M10 19.88V9H13.584C14.7253 9 15.5787 9.288 16.144 9.864C16.72 10.44 17.008 11.208 17.008 12.168V13.016C17.008 13.976 16.72 14.7493 16.144 15.336C15.5787 15.912 14.7253 16.2 13.584 16.2H11.92V19.88H10ZM13.584 10.84H11.92V14.36H13.584C14.0533 14.36 14.4107 14.2427 14.656 14.008C14.912 13.7733 15.04 13.4427 15.04 13.016V12.168C15.04 11.752 14.912 11.4267 14.656 11.192C14.4107 10.9573 14.0533 10.84 13.584 10.84Z" fill="#0A5AF5"/>
</svg>
