<svg fill="none" height="17" viewBox="0 0 17 17" width="17" xmlns="http://www.w3.org/2000/svg"><g stroke="#272732" stroke-linecap="round" stroke-linejoin="round" stroke-width="1.2"><path d="m6.00391 10.2474c0 .9675.7425 1.7475 1.665 1.7475h1.8825c.80249 0 1.45499-.6825 1.45499-1.5225 0-.91502-.3975-1.23752-.99-1.44752l-3.02249-1.05c-.5925-.21-.99-.5325-.99-1.4475 0-.84.6525-1.5225 1.455-1.5225h1.8825c.92249 0 1.66499.78 1.66499 1.7475"/><path d="m8.5 4v9"/><path d="m8.5 16c4.1421 0 7.5-3.3579 7.5-7.5 0-4.14214-3.3579-7.5-7.5-7.5-4.14214 0-7.5 3.35786-7.5 7.5 0 4.1421 3.35786 7.5 7.5 7.5z"/></g></svg>