<svg width="28" height="28" viewBox="0 0 28 28" fill="none" xmlns="http://www.w3.org/2000/svg">
<rect width="28" height="28" rx="4" fill="white"/>
<path d="M14 7C10.141 7 7 10.141 7 14C7 17.859 10.141 21 14 21C17.859 21 21 17.859 21 14C21 10.141 17.859 7 14 7ZM14 19C11.243 19 9 16.757 9 14C9 11.243 11.243 9 14 9C16.757 9 19 11.243 19 14C19 16.757 16.757 19 14 19Z" fill="#0B56C5"/>
<path d="M14 11C12.373 11 11 12.373 11 14C11 15.627 12.373 17 14 17C15.627 17 17 15.627 17 14C17 12.373 15.627 11 14 11Z" fill="#0B56C5"/>
</svg>
