<svg fill="none" height="17" viewBox="0 0 17 17" width="17" xmlns="http://www.w3.org/2000/svg"><g stroke="#272732" stroke-linecap="round" stroke-linejoin="round" stroke-width="1.2"><path d="m2.66662 15.1663c.92046 0 1.66663-.7462 1.66663-1.6667 0-.9204-.74617-1.6666-1.66663-1.6666-.92045 0-1.66662.7462-1.66662 1.6666 0 .9205.74617 1.6667 1.66662 1.6667z"/><path d="m14.3326 5.16626c.9205 0 1.6667-.74618 1.6667-1.66663s-.7462-1.66662-1.6667-1.66662c-.9204 0-1.6666.74617-1.6666 1.66662s.7462 1.66663 1.6666 1.66663z"/><path d="m14.3325 5.1665v4.16656c0 1.10504-.439 2.16484-1.2203 2.94624-.7814.7813-1.8412 1.2203-2.9462 1.2203h-2.49998m0 0 2.49998-2.4999m-2.49998 2.4999 2.49998 2.5"/><path d="m2.66602 11.8331v-4.1666c0-1.10504.43897-2.16482 1.22035-2.94621.78138-.78138 1.84117-1.22035 2.94621-1.22035h2.49993m0 0-2.49993-2.49994m2.49993 2.49994-2.49993 2.49993"/></g></svg>