<svg width="28" height="28" viewBox="0 0 28 28" fill="none" xmlns="http://www.w3.org/2000/svg">
<path d="M12.1387 13.9038C11.3844 13.7688 10.5787 13.9929 9.99579 14.5758L8.71005 15.8615C7.76332 16.8083 7.76332 18.3434 8.71005 19.2902C9.65678 20.2369 11.192 20.2369 12.1387 19.2902L13.4244 18.0044C14.0073 17.4216 14.2314 16.6158 14.0964 15.8615" stroke="#0A5AF5" stroke-width="1.5" stroke-linecap="round" stroke-linejoin="round"/>
<path d="M13.9038 12.1389C13.7688 11.3846 13.9929 10.5789 14.5758 9.99603L15.8615 8.71029C16.8083 7.76356 18.3434 7.76356 19.2902 8.71029C20.2369 9.65703 20.2369 11.1922 19.2902 12.1389L18.0044 13.4247C17.4216 14.0075 16.6158 14.2317 15.8615 14.0967" stroke="#0A5AF5" stroke-width="1.5" stroke-linecap="round" stroke-linejoin="round"/>
<path d="M11.8574 16.1432L16.1432 11.8574" stroke="#0A5AF5" stroke-width="1.5" stroke-linecap="round" stroke-linejoin="round"/>
</svg>
