<svg width="20" height="20" viewBox="0 0 20 20" fill="none" xmlns="http://www.w3.org/2000/svg">
<rect width="20" height="20" rx="4" fill="#0067FF"/>
<rect width="20" height="20" rx="4" fill="url(#paint0_linear_23_672)"/>
<path d="M8.96234 4.56506L5.49664 6.5607V10.552L8.96234 12.5476L10.0327 13.1623V11.917L12.4201 10.54V6.54873L8.96234 4.56506ZM8.89868 11.7134L6.16113 10.1169V6.96382L8.89868 8.54037V11.7134ZM6.19297 6.92391L8.96234 5.34735L11.6999 6.92391L8.96234 8.52041L6.19297 6.92391ZM11.6999 10.1169L8.96234 11.7134V8.55634L11.6999 6.97978V10.1169Z" fill="white"/>
<path fill-rule="evenodd" clip-rule="evenodd" d="M3.66222 8.9238C3.6553 11.8055 6.02041 14.1472 8.94509 14.154C11.8698 14.1608 14.2461 11.8304 14.2533 8.94873C14.2602 6.06703 11.8951 3.72556 8.97039 3.71855C8.96604 3.71855 8.96189 3.71855 8.95774 3.71855C6.03998 3.71174 3.66913 6.03665 3.66222 8.91134C3.66222 8.91543 3.66222 8.91971 3.66222 8.9238ZM3.00026 8.92393C2.97002 5.68214 5.61264 3.03005 8.90257 3.00025C12.1927 2.97048 14.8843 5.57425 14.9146 8.81585C14.9448 12.0576 12.3024 14.7097 9.01227 14.7395C8.99408 14.7397 8.9759 14.7399 8.95772 14.7399C5.68695 14.7446 3.02575 12.1466 3.00026 8.92393Z" fill="white"/>
<path d="M14.7606 13.2434L18 16.1824L16.1521 18.0031L13.1565 14.8239L13.6849 14.2066L13.3175 13.8446L13.202 13.9584L12.6876 13.4515L12.9185 13.2239L13.265 12.8825L13.3828 12.7646L13.9078 13.263L13.7795 13.3894L14.1347 13.7394" fill="white"/>
<defs>
<linearGradient id="paint0_linear_23_672" x1="1.5" y1="0.5" x2="24.5" y2="25" gradientUnits="userSpaceOnUse">
<stop stop-color="#0067FF"/>
<stop offset="1" stop-color="white" stop-opacity="0.15"/>
</linearGradient>
</defs>
</svg>
