<svg width="24" height="24" viewBox="0 0 24 24" fill="none" xmlns="http://www.w3.org/2000/svg">
<g id="Group">
<path id="Vector" d="M11.9996 23.9993C18.6269 23.9993 23.9993 18.6269 23.9993 11.9996C23.9993 5.37243 18.6269 0 11.9996 0C5.37243 0 0 5.37243 0 11.9996C0 18.6269 5.37243 23.9993 11.9996 23.9993Z" fill="#FBBF12"/>
<path id="Vector_2" d="M19.5324 9.46872C19.4253 9.74367 19.2786 9.98266 18.9889 10.1032C18.9656 10.1131 18.948 10.154 18.9409 10.1829C18.6328 11.4208 18.3283 12.6588 18.0188 13.8961C17.9483 14.1724 17.8017 14.2852 17.5112 14.2859C13.85 14.2958 10.1887 14.3047 6.52745 14.3127C6.22994 14.3127 6.08331 14.1978 6.01281 13.913C5.71319 12.7089 5.41215 11.5047 5.12029 10.2985C5.11204 10.246 5.09092 10.1964 5.05881 10.1541C5.0267 10.1118 4.98461 10.0781 4.93629 10.056C4.76334 9.96536 4.62627 9.81873 4.54751 9.64007C4.46875 9.46142 4.45295 9.26132 4.50272 9.07252C4.55097 8.87846 4.66291 8.70618 4.82062 8.58323C4.97833 8.46029 5.1727 8.39377 5.37267 8.39432C5.57282 8.39767 5.76599 8.46837 5.92102 8.59501C6.07605 8.72164 6.18388 8.89681 6.22712 9.09226C6.26298 9.25021 6.25458 9.415 6.20284 9.56849C6.15109 9.72197 6.05802 9.85821 5.93385 9.96222C5.96628 9.99888 5.99236 10.0327 6.02268 10.063C6.3646 10.4071 6.70511 10.7525 7.04844 11.0951C7.78233 11.8269 8.85251 11.7663 9.48418 10.9464C10.1003 10.1469 10.701 9.33619 11.3115 8.5332C11.3651 8.4627 11.3503 8.42322 11.3031 8.35836C11.0732 8.04253 11.0464 7.70413 11.246 7.36785C11.4455 7.03157 11.7599 6.90185 12.1455 6.94486C12.4663 6.98081 12.7631 7.24659 12.8562 7.5864C12.8978 7.73042 12.9016 7.88278 12.867 8.02867C12.8324 8.17456 12.7607 8.30902 12.6588 8.41899C12.6588 8.42929 12.6605 8.43952 12.6637 8.44931C13.3059 9.30869 13.9327 10.1779 14.5961 11.0225C14.7286 11.1907 14.8947 11.3293 15.0839 11.4295C15.273 11.5298 15.481 11.5895 15.6946 11.6047C15.9081 11.62 16.1225 11.5905 16.324 11.5182C16.5255 11.4458 16.7097 11.3323 16.8647 11.1847C17.2786 10.7962 17.6642 10.3789 18.0632 9.97068C18.0014 9.89898 17.944 9.82365 17.8912 9.74508C17.7994 9.60458 17.7514 9.43993 17.7534 9.27208C17.7554 9.10423 17.8073 8.94078 17.9025 8.80251C17.9834 8.66659 18.1015 8.55674 18.243 8.48601C18.3845 8.41528 18.5433 8.38664 18.7005 8.40348C19.0777 8.43168 19.335 8.63119 19.476 8.98369C19.4936 9.02881 19.5127 9.07322 19.531 9.11764L19.5324 9.46872Z" fill="white"/>
<path id="Vector_3" d="M12.0299 17.0643C10.244 17.0643 8.45986 17.0643 6.67765 17.0643C6.58037 17.0683 6.48317 17.0546 6.39071 17.0241C6.32007 17 6.25872 16.9545 6.21523 16.8938C6.17175 16.8331 6.14831 16.7604 6.1482 16.6857C6.14185 16.3234 6.13903 15.9603 6.1482 15.5979C6.15234 15.4938 6.19625 15.3953 6.27089 15.3227C6.34552 15.25 6.44518 15.2087 6.54934 15.2074C6.59305 15.2074 6.63746 15.2074 6.68117 15.2074H17.3709C17.7615 15.2074 17.9096 15.3561 17.9096 15.7495V16.5433C17.9096 16.9156 17.7587 17.0664 17.3822 17.0664H12.0299V17.0643Z" fill="white"/>
</g>
</svg>
