<?xml version="1.0" standalone="no"?><!DOCTYPE svg PUBLIC "-//W3C//DTD SVG 1.1//EN" "http://www.w3.org/Graphics/SVG/1.1/DTD/svg11.dtd"><svg t="1629359144448" class="icon" viewBox="0 0 1024 1024" version="1.1" xmlns="http://www.w3.org/2000/svg" p-id="9538" xmlns:xlink="http://www.w3.org/1999/xlink" width="48" height="48"><defs><style type="text/css"></style></defs><path d="M512 0.011C229.23 0.011 0.011 229.23 0.011 512S229.23 1023.989 512 1023.989 1023.989 794.77 1023.989 512 794.77 0.011 512 0.011z m217.23 343.033L560.272 512 729.23 680.956a34.136 34.136 0 0 1-48.273 48.273L512 560.273 343.044 729.23a34.136 34.136 0 0 1-48.273-48.273L463.727 512 294.77 343.044a34.136 34.136 0 0 1 48.273-48.273L512 463.727 680.956 294.77a34.136 34.136 0 0 1 48.273 48.273z" p-id="9539" fill="#ed6347"></path></svg>