<svg width="20" height="20" viewBox="0 0 20 20" fill="none" xmlns="http://www.w3.org/2000/svg">
<path d="M11.6699 1.66699H7.50326C3.33659 1.66699 1.66992 3.33366 1.66992 7.50032V12.5003C1.66992 16.667 3.33659 18.3337 7.50326 18.3337" stroke="#0066FF" stroke-width="1.5" stroke-linecap="round" stroke-linejoin="round"/>
<path d="M18.3301 8.33325V10.8333" stroke="#0066FF" stroke-width="1.5" stroke-linecap="round" stroke-linejoin="round"/>
<path d="M18.3366 8.33366H15.0033C12.5033 8.33366 11.6699 7.50033 11.6699 5.00033V1.66699L18.3366 8.33366Z" stroke="#0066FF" stroke-width="1.5" stroke-linecap="round" stroke-linejoin="round"/>
<path d="M11.4668 15.2169C9.50846 15.3586 9.50846 18.1919 11.4668 18.3336H16.1001C16.6585 18.3336 17.2085 18.1253 17.6168 17.7503C18.9918 16.5503 18.2585 14.1503 16.4501 13.9253C15.8001 10.0169 10.1501 11.5003 11.4835 15.2253" stroke="#0066FF" stroke-width="1.5" stroke-miterlimit="10" stroke-linecap="round" stroke-linejoin="round"/>
</svg>
