<svg width="24" height="25" viewBox="0 0 24 25" fill="none" xmlns="http://www.w3.org/2000/svg">
<path d="M5.72158 21.0298C4.13667 20.2241 3.47776 19.1283 3.72716 17.7471C3.78834 17.3719 3.9212 17.0132 4.1179 16.6921C4.31461 16.3711 4.5712 16.0941 4.87255 15.8776C5.4922 15.4188 6.19652 15.3181 6.96935 15.3684C6.9247 15.227 6.89237 15.1159 6.85542 15.008C5.31593 10.7494 3.77976 6.48866 2.24694 2.22582C2.16149 1.98603 2.05142 1.9061 1.81434 1.92209C1.51721 1.94367 1.21778 1.93408 0.91989 1.92209C0.676243 1.92104 0.442863 1.82007 0.270577 1.64117C0.0982903 1.46228 0.00105228 1.21994 3.91813e-05 0.966945C-0.00107834 0.84154 0.0217196 0.717146 0.0671174 0.600933C0.112515 0.484719 0.179616 0.378985 0.264551 0.289825C0.349486 0.200665 0.450577 0.12984 0.561995 0.0814372C0.673413 0.0330346 0.792955 0.00801009 0.913731 0.00780451C1.52953 -0.00338546 2.14533 -0.00178689 2.76113 0.00780451C3.24838 0.0149981 3.52549 0.309135 3.68945 0.764726C4.45919 2.90627 5.23048 5.04596 6.00331 7.18377C6.9501 9.80969 7.89561 12.4356 8.83984 15.0615C8.91681 15.2789 9.00533 15.3644 9.24472 15.3636C12.8826 15.354 16.5204 15.3519 20.1582 15.3572H20.4661C20.9795 12.1601 21.4899 8.98136 22.0056 5.76584H8.51962C8.39466 5.77203 8.26943 5.76615 8.14552 5.74826C7.92124 5.70341 7.7207 5.57442 7.58214 5.38588C7.44359 5.19734 7.3767 4.96244 7.39425 4.72598C7.41266 4.49401 7.51168 4.27692 7.67285 4.11515C7.83402 3.95339 8.04633 3.858 8.27022 3.84676C8.35643 3.84117 8.44341 3.84676 8.52963 3.84676H22.8785C23.7491 3.84676 24.1101 4.28317 23.9716 5.16798C23.3732 8.91076 22.7738 12.653 22.1734 16.3947C22.0764 16.9958 21.7293 17.2803 21.0958 17.2803H6.68916C6.56431 17.2744 6.43921 17.279 6.31506 17.2939C6.08958 17.333 5.88607 17.4575 5.74388 17.6434C5.6017 17.8293 5.53095 18.0633 5.54531 18.3002C5.56179 18.5316 5.6576 18.7491 5.81536 18.9134C5.97312 19.0776 6.18237 19.1777 6.40512 19.1954C6.50057 19.2034 6.59679 19.1954 6.69301 19.1954C9.06075 19.1954 11.4282 19.1954 13.7955 19.1954C14.5006 19.1954 14.9578 19.846 14.7192 20.4942C14.5799 20.8747 14.2442 21.1097 13.8163 21.1121C12.9695 21.1121 12.1228 21.1121 11.2761 21.1121H10.9459C11.3053 22.6243 10.9405 23.8432 9.62267 24.6385C8.65741 25.2204 7.43427 25.0781 6.56446 24.3484C5.63229 23.5731 5.34133 22.4365 5.72158 21.0298ZM8.31102 21.1201C8.06817 21.122 7.83581 21.2231 7.66423 21.4016C7.49265 21.58 7.39566 21.8215 7.39425 22.0736C7.39423 22.2009 7.41862 22.327 7.466 22.4444C7.51338 22.5618 7.5828 22.6683 7.67021 22.7576C7.75762 22.8468 7.86128 22.9171 7.97513 22.9644C8.08898 23.0116 8.21075 23.0349 8.33334 23.0328C8.57639 23.0269 8.8075 22.9222 8.97695 22.7412C9.14639 22.5601 9.24061 22.3173 9.23934 22.0648C9.23391 21.8127 9.13379 21.5728 8.96035 21.3963C8.7869 21.2198 8.55388 21.1206 8.31102 21.1201Z" fill="#41359F"/>
<path d="M19.3961 24.9559C18.6614 24.9542 17.9574 24.6497 17.4389 24.1092C16.9204 23.5687 16.6299 22.8366 16.6311 22.0737C16.6323 21.311 16.9247 20.5798 17.4441 20.0405C17.9635 19.5011 18.6676 19.1976 19.4022 19.1963C19.7687 19.1974 20.1313 19.2738 20.4692 19.421C20.8071 19.5682 21.1137 19.7834 21.3712 20.0541C21.6288 20.3248 21.8322 20.6457 21.9699 20.9983C22.1075 21.351 22.1767 21.7284 22.1733 22.1089C22.164 22.8673 21.8673 23.5914 21.3475 24.1243C20.8276 24.6572 20.1265 24.956 19.3961 24.9559ZM20.3259 22.0929C20.3292 21.8403 20.2364 21.5965 20.0676 21.4145C19.8989 21.2325 19.6678 21.1271 19.4245 21.121C19.3016 21.1182 19.1793 21.141 19.0649 21.1879C18.9505 21.2349 18.8463 21.3051 18.7584 21.3944C18.6705 21.4838 18.6007 21.5905 18.553 21.7082C18.5053 21.8259 18.4808 21.9524 18.4808 22.0801C18.4808 22.333 18.577 22.5756 18.7484 22.7552C18.9198 22.9349 19.1525 23.0369 19.3961 23.0393C19.6394 23.0389 19.8729 22.9397 20.0467 22.7628C20.2205 22.586 20.3207 22.3455 20.3259 22.0929Z" fill="#41359F"/>
</svg>
