<svg width="56" height="47" fill="none" xmlns="http://www.w3.org/2000/svg"><path d="m17.614 24.535 1.012 3.857.626-.201-1.47-3.704-.168.048Zm5.155-1.69-.093.03.48 1.47.437-.142c.233-.075.269-.353.113-.834-.105-.32-.218-.51-.338-.57a.858.858 0 0 0-.599.046Zm5.327-1.704 1.012 3.857.625-.201-1.47-3.704-.167.048Zm21.63-11.153-2.646.856A23.207 23.207 0 0 0 35.425 2.1a23.323 23.323 0 0 0-14.595-.094 23.208 23.208 0 0 0-11.74 8.626 23.027 23.027 0 0 0-4.248 13.893l-2.647.856-2.081 4.067 2.087 6.376 4.084 2.069 2.647-.856a23.205 23.205 0 0 0 11.654 8.744 23.321 23.321 0 0 0 14.595.094 23.203 23.203 0 0 0 11.74-8.624A23.023 23.023 0 0 0 51.17 23.36l2.647-.859 2.078-4.064-2.084-6.377-4.084-2.07Zm-28.685-7.34a22.642 22.642 0 0 1 14.072.06 22.531 22.531 0 0 1 11.295 8.356l-.976.316a21.551 21.551 0 0 0-10.768-7.794 21.654 21.654 0 0 0-13.316-.011 21.555 21.555 0 0 0-10.762 7.806 21.388 21.388 0 0 0-4.1 12.61l-.976.316a22.356 22.356 0 0 1 4.19-13.37 22.531 22.531 0 0 1 11.343-8.289h-.002Zm24.3 14.666.484 1.48-1.652.534.587 1.797 1.836-.594.502 1.538-3.615 1.173-2.574-7.88 3.501-1.134.5 1.529-1.722.558.504 1.539 1.65-.54ZM35.3 14.659a11.88 11.88 0 0 0-10.961-1.924 11.83 11.83 0 0 0-4.865 3.026 11.753 11.753 0 0 0-2.86 4.949L7.16 23.77a20.715 20.715 0 0 1 4.035-12.08 20.876 20.876 0 0 1 10.357-7.472 20.973 20.973 0 0 1 12.792-.024A20.875 20.875 0 0 1 44.75 11.6L35.3 14.66Zm1.331 3.763-.498-1.519 3.83-1.24.497 1.52-1.04.336 2.08 6.363-1.75.568-2.08-6.365-1.039.337Zm-9.682-1.346-1.16-.213-.809.852-.154-1.166-1.066-.506 1.064-.506.156-1.164.81.852 1.161-.215-.562 1.033.56 1.033Zm2.176 13.328 1.16.214.81-.854.153 1.166 1.066.506-1.066.505-.154 1.164-.81-.852-1.161.216.563-1.034-.561-1.03Zm1.714-3.07-.512-1.148-.884.288.279 1.223-1.702.55-1.682-8.174 2.747-.884 3.452 7.6-1.698.546Zm-.945-11.368-.824-.15-.576.604-.11-.826-.755-.36.755-.36.11-.825.576.604.824-.153-.405.733.405.733Zm2.846 13.437.823.151.575-.604.111.828.755.358-.755.359-.109.826-.577-.605-.823.153.404-.733-.404-.733Zm.734-2.912-2.568-7.892 1.801-.584 2.038 3.51-1.232-3.77 1.69-.548 2.576 7.884-1.71.554-2.164-3.662 1.29 3.946-1.72.562Zm-7.298 5.035.822.153.577-.604.111.828.755.358-.755.359-.11.826L27 32.84l-.824.154.405-.734-.405-.735Zm-.59-7.966c.017.134.012.27-.015.403-.032.13-.087.254-.164.364-.09.138-.208.256-.346.347a.992.992 0 0 1 .457.036c.13.043.243.12.328.226.078.091.146.191.203.298.054.106.1.216.137.33.425 1.303.742 2.295.95 2.977l-1.71.552-1.013-3.072a.98.98 0 0 0-.133-.28.261.261 0 0 0-.19-.11.633.633 0 0 0-.215 0 3.925 3.925 0 0 0-.291.082l1.171 3.59-1.768.572-2.579-7.884 2.686-.868c.238-.085.49-.125.743-.12.194.006.385.055.558.144.169.102.313.24.423.403.127.174.235.36.322.558a9.057 9.057 0 0 1 .378 1.081c.034.12.058.242.071.365l-.004.006Zm-2.255-5.47-.824-.152-.577.605-.11-.826-.754-.36.755-.36.11-.825.576.604.824-.153-.405.733.405.733Zm-1.283 12.097-1.69.547-.514-1.148-.879.278.28 1.223-1.703.55-1.681-8.174 2.74-.886 3.447 7.61Zm-12.25-4.754 1.701-.552 1.856 5.676c.026.087.05.153.069.202.024.07.055.137.09.201.033.068.077.13.13.183a.392.392 0 0 0 .399.079.46.46 0 0 0 .17-.093.296.296 0 0 0 .087-.147.988.988 0 0 0 .027-.16.694.694 0 0 0-.02-.19 3.548 3.548 0 0 0-.045-.175c-.012-.04-.029-.097-.053-.17l-1.856-5.676 1.702-.552 1.895 5.797c.232.711.237 1.31.016 1.789-.22.48-.698.838-1.417 1.07-.718.231-1.34.233-1.803-.025-.464-.258-.81-.743-1.046-1.456l-1.903-5.8Zm10.908 7.791a11.888 11.888 0 0 0 15.825-1.102 11.763 11.763 0 0 0 2.86-4.949l9.452-3.06a20.71 20.71 0 0 1-4.035 12.082 20.871 20.871 0 0 1-10.358 7.47 20.971 20.971 0 0 1-12.792.025 20.874 20.874 0 0 1-10.404-7.406l9.452-3.06ZM6.133 32.74l-1.117-3.414a3.062 3.062 0 0 1-.17-1.024c-.001-.26.052-.52.156-.759.097-.202.235-.382.404-.53.156-.14.329-.26.514-.356.176-.084.357-.156.543-.216.222-.074.45-.128.682-.163.188-.028.38-.028.569 0 .157.023.31.064.459.121.143.058.272.143.383.25.108.105.21.218.303.338.1.137.185.284.255.437.083.175.154.343.215.498.06.155.125.34.202.556l-1.67.54-.202-.623a1.098 1.098 0 0 0-.142-.3.358.358 0 0 0-.17-.14.463.463 0 0 0-.154-.025.471.471 0 0 0-.14.026.651.651 0 0 0-.228.117.403.403 0 0 0-.111.147.451.451 0 0 0 0 .24c.015.102.037.204.065.304.028.092.072.24.137.437l.998 3.047c.03.098.066.194.107.288.039.085.086.165.142.24a.424.424 0 0 0 .214.163c.095.025.194.02.286-.014a.36.36 0 0 0 .283-.318 1.945 1.945 0 0 0-.131-.693L8.517 31l-.467.154-.444-1.362 2.117-.687 1.502 4.595-.682.219-.516-.572a1.641 1.641 0 0 1-1.194 1.225c-1.273.404-2.175-.208-2.706-1.835l.006.002Zm28.836 12.488a22.637 22.637 0 0 1-14.072-.059 22.527 22.527 0 0 1-11.293-8.355l.975-.316a21.553 21.553 0 0 0 10.77 7.793 21.656 21.656 0 0 0 13.314.01 21.553 21.553 0 0 0 10.76-7.803 21.386 21.386 0 0 0 4.101-12.605l.976-.316a22.357 22.357 0 0 1-4.193 13.37 22.53 22.53 0 0 1-11.344 8.287l.006-.006ZM51.8 20.545l-3.616 1.17-2.577-7.884 3.502-1.134.5 1.531-1.72.556.501 1.539 1.651-.534.484 1.48-1.651.534.587 1.797 1.835-.594.504 1.539Z" fill="#59617D"/></svg>