<svg width="10" height="10" viewBox="0 0 20 20" fill="none" xmlns="http://www.w3.org/2000/svg">
<path d="M7.5 0C3.35781 0 0 3.35781 0 7.5C0 11.6422 3.35781 15.0003 7.5 15.0003C11.6422 15.0003 15 11.6422 15 7.5C15 3.35781 11.6422 0 7.5 0ZM7.5 13.7894C4.04813 13.7894 1.25 10.9909 1.25 7.53906C1.25 4.08719 4.04813 1.28906 7.5 1.28906C10.9519 1.28906 13.75 4.08719 13.75 7.53906C13.75 10.9909 10.9519 13.7894 7.5 13.7894Z" fill="#131313"/>
<path d="M7.11951 9.97751C6.58107 9.97751 6.31201 10.2541 6.31201 10.8069C6.31201 11.0741 6.3817 11.2819 6.52076 11.43C6.65982 11.5781 6.85951 11.6528 7.11951 11.6528C7.37982 11.6528 7.57982 11.5766 7.72076 11.4247C7.8617 11.2728 7.93264 11.0669 7.93264 10.8069C7.93264 10.5431 7.86295 10.3388 7.72389 10.1941C7.58482 10.0494 7.38326 9.97751 7.11951 9.97751Z" fill="#131313"/>
<path d="M9.16852 3.87436C8.74727 3.5228 8.17789 3.34686 7.46039 3.34686C6.74696 3.34686 6.07196 3.49468 5.43352 3.78624C5.07539 3.94749 5.23602 4.31311 5.23664 4.31499L5.37977 4.61468C5.37977 4.61468 5.54883 4.90124 5.91321 4.7603C5.91696 4.75905 5.91821 4.75968 5.92164 4.75811C6.07914 4.69218 6.23852 4.63093 6.40039 4.57686C6.69696 4.47811 7.01914 4.42843 7.36727 4.42843C7.75164 4.42843 8.04633 4.51093 8.25164 4.67561C8.45696 4.8403 8.55914 5.07655 8.55914 5.38436C8.55914 5.64811 8.49571 5.87499 8.36946 6.06561C8.24321 6.25624 7.96227 6.52343 7.52664 6.86749C7.16071 7.15311 6.90414 7.42968 6.75758 7.69686C6.61102 7.96436 6.53789 8.29968 6.53789 8.70249C6.52383 8.99561 6.89727 9.05405 6.89727 9.05405H7.12289C7.12289 9.05405 7.55227 9.05655 7.61789 8.68655C7.61883 8.68155 7.62039 8.67999 7.62133 8.67499C7.63633 8.44061 7.69008 8.24655 7.78727 8.09811C7.90258 7.92217 8.13102 7.70061 8.47133 7.43311C8.87039 7.12186 9.15133 6.86905 9.31414 6.67499C9.47696 6.48093 9.59914 6.27686 9.67977 6.06249C9.76039 5.84811 9.80071 5.60374 9.80071 5.32905C9.80008 4.71124 9.58977 4.22593 9.16852 3.87436Z" fill="#131313"/>
</svg>
