<svg width="22" height="21" viewBox="0 0 22 21" fill="none" xmlns="http://www.w3.org/2000/svg">
<path d="M6.92553 7.36852C7.33458 6.48885 7.72694 5.64543 8.11763 4.80123C8.76266 3.40657 9.40714 2.01166 10.0511 0.616476C10.2297 0.227086 10.5269 0.00480262 10.9827 7.31937e-05C11.4527 -0.00465623 11.7582 0.219994 11.9427 0.620418C12.9362 2.77126 13.9312 4.92183 14.928 7.07214C14.9689 7.16043 15.0115 7.24792 15.0699 7.36379C15.6276 6.98623 16.166 6.62364 16.702 6.26026C17.9264 5.42578 19.1507 4.59051 20.3751 3.75445C20.7633 3.4896 21.1932 3.4762 21.5672 3.71662C21.9237 3.94521 22.0748 4.36061 21.9646 4.78231C20.9857 8.53905 20.0073 12.2963 19.0294 16.0541C18.8349 16.8037 18.5744 17 17.748 17H4.24663C3.42267 17 3.16138 16.8006 2.9652 16.0541C2.07029 12.6016 1.1737 9.14941 0.275447 5.69746C0.202819 5.42078 0.133529 5.14569 0.0558919 4.86823C-0.0851907 4.36612 0.0417004 3.9657 0.426547 3.7174C0.811394 3.46911 1.24549 3.50221 1.69379 3.80884C3.42184 4.98962 5.15407 6.16488 6.92553 7.36852ZM11.0019 3.31698C10.946 3.42103 10.9251 3.45492 10.9092 3.49039C10.0427 5.36272 9.17756 7.23478 8.31382 9.10658C8.00494 9.78053 7.30453 9.97365 6.68427 9.5409C5.88703 8.98914 5.08311 8.44525 4.28169 7.89822C3.74408 7.53169 3.20562 7.16673 2.61207 6.76394C3.34253 9.57953 4.05796 12.3321 4.77339 15.0893H17.212L19.3742 6.76237C17.9742 7.71692 16.6394 8.62261 15.3095 9.53618C14.6993 9.95552 13.983 9.78605 13.6866 9.14206C12.9631 7.56558 12.2366 5.9891 11.507 4.41263C11.3508 4.07132 11.1897 3.7245 11.0019 3.31934V3.31698Z" fill="#131313"/>
<path d="M11.0317 19.005C13.3328 19.005 15.6342 19.005 17.9359 19.005C18.6871 19.005 19.1805 19.6639 18.9376 20.3295C18.7923 20.7277 18.4951 20.9468 18.0744 20.9959C17.981 21.0014 17.8874 21.0014 17.794 20.9959H4.20263C4.05724 21.002 3.91162 20.9917 3.76856 20.9651C3.53329 20.9089 3.32634 20.7697 3.18594 20.5731C3.04555 20.3765 2.98119 20.1358 3.00477 19.8955C3.02971 19.6496 3.14571 19.4219 3.33006 19.2569C3.5144 19.0919 3.75382 19.0015 4.00146 19.0033C5.13671 18.9958 6.27196 19.0033 7.40722 19.0033L11.0317 19.005Z" fill="#131313"/>
</svg>
