<svg width="151" height="137" viewBox="0 0 151 137" fill="none" xmlns="http://www.w3.org/2000/svg">
<mask id="mask0_419_858" style="mask-type:alpha" maskUnits="userSpaceOnUse" x="0" y="0" width="151" height="137">
<rect width="151" height="137" rx="10" fill="url(#paint0_linear_419_858)"/>
</mask>
<g mask="url(#mask0_419_858)">
<g style="mix-blend-mode:darken" opacity="0.3">
<path d="M116.072 1.45787C147.459 14.2091 156.745 54.2021 134.189 79.4793L86.5886 132.821C60.1449 162.454 11.2819 149.967 2.29853 111.28L-16.3361 31.0292C-25.3195 -7.65806 13.041 -40.3995 49.8369 -25.4508L116.072 1.45787Z" fill="#1D2327"/>
</g>
<path d="M106.109 7.65574C139.3 18.0659 151.377 58.7809 129.231 85.6058L79.4432 145.912C54.4667 176.166 5.83661 166.263 -5.32011 128.651L-30.1511 44.9412C-41.3078 7.32975 -5.9434 -27.4886 31.4899 -15.7479L106.109 7.65574Z" fill="white"/>
</g>
<path d="M72.5147 77.5943C80.8894 77.5943 87.6785 70.8479 87.6785 62.526C87.6785 54.204 80.8894 47.4576 72.5147 47.4576C64.1399 47.4576 57.3508 54.204 57.3508 62.526C57.3508 70.8479 64.1399 77.5943 72.5147 77.5943Z" fill="#F0EFFF"/>
<path d="M46.6157 114.691C62.6742 114.691 75.6921 101.673 75.6921 85.6145C75.6921 69.556 62.6742 56.5381 46.6157 56.5381C30.5573 56.5381 17.5393 69.556 17.5393 85.6145C17.5393 101.673 30.5573 114.691 46.6157 114.691Z" fill="#F1EEFF"/>
<path d="M107.769 61.6118H41.6355C40.2 61.6118 38.8234 62.1784 37.8084 63.187C36.7934 64.1956 36.2231 65.5636 36.2231 66.99V94.9501C36.2251 96.375 36.7962 97.7408 37.8111 98.7475C38.826 99.7542 40.2015 100.319 41.6355 100.319H67.0764L71.6356 104.854L76.1899 100.319H107.769C108.48 100.321 109.185 100.183 109.842 99.9143C110.5 99.6454 111.098 99.2504 111.601 98.7518C112.105 98.2532 112.505 97.6608 112.778 97.0084C113.052 96.3561 113.193 95.6567 113.194 94.9501V66.99C113.194 66.2827 113.053 65.5823 112.781 64.929C112.508 64.2757 112.108 63.6823 111.604 63.1827C111.1 62.6831 110.502 62.2872 109.844 62.0177C109.186 61.7481 108.481 61.6102 107.769 61.6118Z" fill="white" stroke="#6F56FF" stroke-miterlimit="10"/>
<path d="M50.7885 78.0388C53.6652 76.8348 55.015 73.5414 53.8034 70.6828C52.5917 67.8242 49.2775 66.4829 46.4008 67.6869C43.5241 68.8909 42.1742 72.1842 43.3859 75.0428C44.5975 77.9014 47.9117 79.2427 50.7885 78.0388Z" fill="#DAE0FF"/>
<path d="M60.371 67.7649L61.4099 70.8548L64.6881 70.8305L62.0504 72.7666L63.0869 75.8565L60.4199 73.9618L57.7822 75.8978L58.7722 72.7909L56.1052 70.8961L59.3834 70.8718L60.371 67.7649Z" fill="#FAAF3B"/>
<path d="M70.8141 67.7649L71.8531 70.8548L75.1313 70.8305L72.4935 72.7666L73.5301 75.8565L70.863 73.9618L68.2253 75.8978L69.2153 72.7909L66.5483 70.8961L69.8265 70.8718L70.8141 67.7649Z" fill="#FAAF3B"/>
<path d="M81.2575 67.7649L82.2965 70.8548L85.5747 70.8305L82.937 72.7666L83.9735 75.8565L81.3064 73.9618L78.6687 75.8978L79.6588 72.7909L76.9917 70.8961L80.2699 70.8718L81.2575 67.7649Z" fill="#FAAF3B"/>
<path d="M91.7009 67.7649L92.7399 70.8548L96.0181 70.8305L93.3804 72.7666L94.4169 75.8565L91.7498 73.9618L89.1121 75.8978L90.1022 72.7909L87.4351 70.8961L90.7133 70.8718L91.7009 67.7649Z" fill="#FAAF3B"/>
<path d="M102.144 67.7649L103.183 70.8548L106.461 70.8305L103.824 72.7666L104.86 75.8565L102.193 73.9618L99.5553 75.8978L100.545 72.7909L97.8784 70.8961L101.157 70.8718L102.144 67.7649Z" fill="#FAAF3B"/>
<path d="M47.6346 80.9893H42.6427V82.3157H47.6346V80.9893Z" fill="#BBABF8"/>
<path d="M56.3496 80.9893H48.8666V82.3157H56.3496V80.9893Z" fill="#BBABF8"/>
<path d="M53.4087 84.9247H42.6427V86.2511H53.4087V84.9247Z" fill="#E6DFFC"/>
<path d="M82.9859 84.9247H57.7968V86.2511H82.9859V84.9247Z" fill="#E6DFFC"/>
<path d="M106.76 84.9247H87.3716V86.2511H106.76V84.9247Z" fill="#E6DFFC"/>
<path d="M66.7122 89.1441H42.6427V90.4704H66.7122V89.1441Z" fill="#E6DFFC"/>
<path d="M106.762 89.1441H94.7322V90.4704H106.762V89.1441Z" fill="#E6DFFC"/>
<path d="M91.9013 89.1441H70.8142V90.4704H91.9013V89.1441Z" fill="#E6DFFC"/>
<path d="M73.3615 93.3638H42.6427V94.6902H73.3615V93.3638Z" fill="#E6DFFC"/>
<path d="M111.453 41.1125H68.2859C66.335 41.1125 64.7534 42.6841 64.7534 44.6227V53.2051C64.7534 55.1437 66.335 56.7153 68.2859 56.7153H111.453C113.404 56.7153 114.985 55.1437 114.985 53.2051V44.6227C114.985 42.6841 113.404 41.1125 111.453 41.1125Z" fill="white" stroke="#6F56FF" stroke-miterlimit="10"/>
<path d="M81.3547 46.26L82.0319 48.2787L84.1709 48.2617L82.4499 49.5249L83.127 51.5411L81.3865 50.3046L79.6655 51.5678L80.3109 49.5419L78.5679 48.3054L80.7093 48.2884L81.3547 46.26Z" fill="#FAAF3B"/>
<path d="M88.1703 46.26L88.8474 48.2787L90.9889 48.2617L89.2654 49.5249L89.9426 51.5411L88.202 50.3046L86.481 51.5678L87.1264 49.5419L85.3859 48.3054L87.5249 48.2884L88.1703 46.26Z" fill="#FAAF3B"/>
<path d="M94.9881 46.26L95.6653 48.2787L97.8043 48.2617L96.0833 49.5249L96.7605 51.5411L95.0199 50.3046L93.2965 51.5678L93.9418 49.5419L92.2013 48.3054L94.3428 48.2884L94.9881 46.26Z" fill="#FAAF3B"/>
<path d="M101.804 46.26L102.481 48.2787L104.622 48.2617L102.899 49.5249L103.576 51.5411L101.836 50.3046L100.115 51.5678L100.76 49.5419L99.0194 48.3054L101.158 48.2884L101.804 46.26Z" fill="#FAAF3B"/>
<path d="M108.622 46.26L109.299 48.2787L111.438 48.2617L109.717 49.5249L110.394 51.5411L108.651 50.3046L106.93 51.5678L107.575 49.5419L105.835 48.3054L107.974 48.2884L108.622 46.26Z" fill="#E8ECFF"/>
<path d="M75.6587 48.7218C75.9361 47.0159 74.7694 45.4096 73.0527 45.1339C71.336 44.8582 69.7195 46.0176 69.4421 47.7235C69.1647 49.4293 70.3314 51.0357 72.0481 51.3114C73.7647 51.587 75.3813 50.4276 75.6587 48.7218Z" fill="#DAE0FF"/>
<path d="M71.5371 51.9978H68.7552V52.7363H71.5371V51.9978Z" fill="#BBABF8"/>
<path d="M76.3946 51.9978H72.2241V52.7363H76.3946V51.9978Z" fill="#BBABF8"/>
<path d="M120.384 67.893C123.06 67.893 125.23 65.7371 125.23 63.0775C125.23 60.418 123.06 58.262 120.384 58.262C117.707 58.262 115.538 60.418 115.538 63.0775C115.538 65.7371 117.707 67.893 120.384 67.893Z" fill="#FF7AA9"/>
<path d="M121.838 61.2619C121.647 61.2619 121.457 61.2994 121.281 61.3723C121.104 61.4451 120.944 61.5519 120.808 61.6865C120.673 61.8211 120.566 61.9809 120.493 62.1566C120.42 62.3324 120.383 62.5208 120.384 62.7109C120.391 62.5167 120.358 62.3231 120.288 62.1416C120.218 61.9602 120.112 61.7946 119.976 61.6548C119.84 61.515 119.677 61.4038 119.497 61.3279C119.317 61.252 119.124 61.2128 118.928 61.2128C118.733 61.2128 118.539 61.252 118.359 61.3279C118.179 61.4038 118.016 61.515 117.88 61.6548C117.745 61.7946 117.639 61.9602 117.568 62.1416C117.498 62.3231 117.466 62.5167 117.473 62.7109C117.473 64.5158 120.384 66.0292 120.384 66.0292C120.384 66.0292 123.296 64.5158 123.296 62.7109C123.296 62.3266 123.143 61.958 122.869 61.6863C122.596 61.4146 122.225 61.2619 121.838 61.2619Z" fill="white"/>
<path d="M30.936 72.6996C31.5234 69.1354 29.0919 65.773 25.5051 65.1893C21.9184 64.6057 18.5346 67.0218 17.9473 70.586C17.3599 74.1501 19.7914 77.5126 23.3781 78.0962C26.9649 78.6799 30.3487 76.2637 30.936 72.6996Z" fill="#FF7AA9"/>
<path d="M26.4157 69.1706C26.1558 69.1702 25.8984 69.221 25.6583 69.3198C25.4182 69.4186 25.2001 69.5636 25.0165 69.7465C24.833 69.9293 24.6876 70.1464 24.5888 70.3852C24.4899 70.6241 24.4395 70.88 24.4405 71.1382C24.4405 70.8801 24.3893 70.6246 24.2899 70.3862C24.1905 70.1477 24.0449 69.9311 23.8612 69.7486C23.6776 69.5661 23.4596 69.4213 23.2196 69.3226C22.9797 69.2238 22.7225 69.173 22.4628 69.173C22.2031 69.173 21.9459 69.2238 21.706 69.3226C21.466 69.4213 21.248 69.5661 21.0644 69.7486C20.8807 69.9311 20.735 70.1477 20.6357 70.3862C20.5363 70.6246 20.4851 70.8801 20.4851 71.1382C20.4851 73.5893 24.4405 75.6444 24.4405 75.6444C24.4405 75.6444 28.4081 73.5893 28.4081 71.1382C28.4081 70.8788 28.3564 70.6219 28.2562 70.3824C28.1559 70.1429 28.0089 69.9254 27.8238 69.7426C27.6386 69.5597 27.4189 69.415 27.1772 69.3168C26.9356 69.2187 26.6768 69.169 26.4157 69.1706Z" fill="white"/>
<path d="M25.9649 44.5169L31.1038 44.405L32.604 39.4597L34.2793 44.3388L39.4181 44.2269L35.3145 47.353L36.9905 52.2298L32.7791 49.2841L28.6754 52.4102L30.1763 47.4625L25.9649 44.5169Z" fill="#BBABF8"/>
<path d="M39.4595 40.3667L43.3819 40.2818L44.5279 36.5037L45.8065 40.2304L49.7312 40.1463L46.5984 42.5322L47.8776 46.2566L44.6611 44.0061L41.5276 46.3944L42.6737 42.6164L39.4595 40.3667Z" fill="#BBABF8"/>
<path d="M48.7901 48.5874L51.0725 48.5364L51.7388 46.3398L52.4827 48.5069L54.762 48.4575L52.9395 49.8461L53.6841 52.0109L51.8163 50.7035L49.9938 52.0922L50.6602 49.8955L48.7901 48.5874Z" fill="#BBABF8"/>
<path d="M41.0264 51.8772L43.3088 51.8261L43.9752 49.6295L44.719 51.7966L46.9983 51.7472L45.1758 53.1359L45.9204 55.3007L44.0527 53.9933L42.2302 55.3819L42.8965 53.1853L41.0264 51.8772Z" fill="#BBABF8"/>
<path d="M31.6609 94.747C31.6578 97.8918 30.4493 100.917 28.2811 103.208C26.113 105.499 23.148 106.883 19.9895 107.078C16.8309 107.274 13.716 106.266 11.2785 104.261C8.84087 102.255 7.2637 99.4023 6.86778 96.2823C6.43753 92.6021 7.43003 89.3299 9.86485 86.5655C11.0123 85.2137 12.4484 84.133 14.0688 83.4018C15.6892 82.6707 17.4532 82.3075 19.2326 82.3387C20.8691 82.3406 22.4891 82.6633 24 83.2883C25.5108 83.9132 26.8827 84.8282 28.0372 85.9808C29.1917 87.1334 30.106 88.501 30.7278 90.0053C31.3496 91.5095 31.6667 93.1208 31.6609 94.747Z" fill="#6F56FF"/>
<path d="M20.9608 99.3745H17.6679C17.2744 99.3745 17.1277 99.2482 17.1326 98.8571C17.1326 97.1567 17.0543 95.4562 17.179 93.7558C17.2706 92.6788 17.6873 91.6543 18.3744 90.8165C18.8245 90.2261 19.3145 89.6669 19.8412 89.1428C19.9232 89.0663 19.9875 88.973 20.0297 88.8694C20.0719 88.7658 20.091 88.6544 20.0856 88.5427C20.0856 88.2512 20.1101 87.9597 20.1028 87.6682C20.08 87.503 20.1124 87.3349 20.1949 87.1896C20.2775 87.0444 20.4057 86.9301 20.5599 86.8642C20.7272 86.7938 20.912 86.7753 21.09 86.8113C21.2681 86.8473 21.431 86.936 21.5573 87.0658C21.8145 87.3337 21.9848 87.6722 22.0462 88.0375C22.2413 88.9262 22.1248 89.8544 21.7162 90.6683C21.5891 90.9525 21.4717 91.2416 21.3299 91.5161C21.237 91.6958 21.3104 91.759 21.4717 91.7833C21.5531 91.7901 21.6348 91.7901 21.7162 91.7833H24.6693C24.8972 91.7632 25.1251 91.8231 25.3131 91.9527C25.5012 92.0823 25.6375 92.2734 25.6984 92.4926C25.7731 92.7368 25.7658 92.9985 25.6776 93.2383C25.5894 93.478 25.4251 93.6827 25.2095 93.8214C25.014 93.9234 25.0213 93.9671 25.19 94.0862C25.5493 94.3291 25.7889 94.6546 25.7156 95.1307C25.7039 95.2974 25.6413 95.4566 25.5359 95.5869C25.4306 95.7172 25.2877 95.8123 25.1264 95.8595C25.0604 95.8789 24.9553 95.8741 24.9431 95.9615C24.9308 96.049 25.0359 96.066 25.0922 96.1097C25.5664 96.4595 25.63 97.3923 24.9357 97.679C24.8013 97.7324 24.7426 97.7664 24.8844 97.9C25.017 98.0304 25.1044 98.1993 25.1338 98.3823C25.1633 98.5653 25.1333 98.7529 25.0482 98.9178C24.9113 99.2652 24.5984 99.3697 24.2366 99.3697C23.1389 99.3697 22.0364 99.3697 20.9437 99.3697L20.9608 99.3745Z" fill="#FDFDFE"/>
<path d="M15.7979 100.346H13.0746C13.0199 100.352 12.9648 100.345 12.9128 100.328C12.8608 100.31 12.8132 100.282 12.773 100.245C12.7328 100.207 12.701 100.162 12.6796 100.112C12.6583 100.062 12.648 100.007 12.6492 99.9528C12.6419 99.8218 12.6419 99.6904 12.6492 99.5593C12.6492 97.6694 12.6492 95.7803 12.6492 93.892C12.6492 93.4256 12.7666 93.3114 13.2408 93.3114H15.6854C16.0106 93.3114 16.1743 93.4547 16.1743 93.7632C16.1743 95.7455 16.1743 97.7277 16.1743 99.7099C16.1758 99.7188 16.1758 99.7278 16.1743 99.7366C16.123 99.7536 16.1279 99.7731 16.1743 99.7925C16.189 100.004 16.1743 100.208 15.9299 100.3C15.9299 100.242 15.903 100.176 15.8321 100.196C15.7612 100.215 15.815 100.29 15.7979 100.346Z" fill="#FDFDFE"/>
<path d="M56.0175 35L56.9733 37.7041H60.0629L57.5623 39.3754L58.5181 42.0795L56.0175 40.4081L53.5184 42.0795L54.4727 39.3754L51.9721 37.7041H55.0632L56.0175 35Z" fill="#BBABF8"/>
<defs>
<linearGradient id="paint0_linear_419_858" x1="59.1458" y1="-11.3439" x2="160.006" y2="-6.84414" gradientUnits="userSpaceOnUse">
<stop stop-color="#6E55FF"/>
<stop offset="1" stop-color="#845DE2"/>
</linearGradient>
</defs>
</svg>
