<svg width="24" height="24" fill="none" xmlns="http://www.w3.org/2000/svg"><path d="m23.974 10.916-.028-.088c-.236-.897-.823-1.442-1.735-1.619-.353-.069-.713-.13-1.073-.185-.057-.009-.065-.013-.088-.073a27 27 0 0 0-.244-.598c-.08-.196-.17-.408-.247-.61a.152.152 0 0 1 0-.064c.102-.159.214-.318.322-.473.147-.211.299-.43.436-.655a2.022 2.022 0 0 0-.212-2.38c-.394-.439-.811-.857-1.25-1.252a2.007 2.007 0 0 0-2.415-.22c-.227.135-.44.287-.652.434-.15.105-.305.213-.457.31a.128.128 0 0 1-.065.009c-.455-.177-.852-.34-1.214-.504a.188.188 0 0 1-.065-.088c-.052-.227-.088-.465-.13-.693-.02-.12-.04-.24-.062-.359-.19-1.051-.987-1.755-2.028-1.794a21.138 21.138 0 0 0-1.534 0c-.986.036-1.743.65-1.976 1.605-.094.378-.155.765-.215 1.14l-.016.09c-.013.08-.024.089-.08.108-.412.157-.816.323-1.198.495a.113.113 0 0 1-.046.015.125.125 0 0 1-.042-.025c-.285-.208-.584-.42-.89-.626-.91-.619-1.932-.549-2.733.189-.365.336-.714.684-1.038 1.037-.735.8-.803 1.822-.18 2.733.08.12.165.238.25.353.125.177.255.362.371.54a.138.138 0 0 1 0 .066c-.167.442-.332.837-.503 1.216a.168.168 0 0 1-.07.058c-.256.058-.524.1-.783.14l-.083.012c-.645.1-1.11.328-1.464.718-.305.337-.435.74-.53 1.09l-.007.03v1.991l.008.03c.102.374.238.765.53 1.09.352.39.817.618 1.464.718l.099.015c.254.04.517.08.766.138a.167.167 0 0 1 .07.058c.176.383.338.781.504 1.215a.166.166 0 0 1 0 .064c-.1.154-.209.31-.314.46-.147.208-.298.425-.434.65a2.011 2.011 0 0 0 .218 2.416c.362.407.744.794 1.147 1.16.793.725 1.808.788 2.714.17.121-.083.24-.168.36-.252.176-.125.36-.255.539-.372a.141.141 0 0 1 .066-.004c.206.079.413.164.618.248.204.084.396.165.597.242.061.024.064.031.072.089.051.34.114.706.186 1.073.182.93.735 1.515 1.644 1.74a.56.56 0 0 1 .068.024l.046.017.034.012h2.002l.095-.03c.04-.012.082-.025.124-.036a1.975 1.975 0 0 0 1.258-.913c.135-.237.236-.492.3-.757.1-.388-.176-.827-.587-.938-.411-.11-.832.12-.987.551-.155.431-.233.485-.69.485H11.45c-.441 0-.586-.124-.658-.55l-.088-.523c-.05-.288-.102-.586-.15-.883-.06-.387-.276-.638-.678-.788-.59-.221-1.184-.466-1.764-.728-.392-.177-.722-.153-1.036.076-.423.306-.853.604-1.218.856-.298.204-.494.186-.753-.065a48.96 48.96 0 0 1-.858-.858c-.264-.265-.276-.46-.062-.769l.065-.094c.252-.365.512-.741.778-1.103.307-.42.19-.806.074-1.06a25.893 25.893 0 0 1-.719-1.742c-.152-.413-.415-.635-.828-.696a32.354 32.354 0 0 1-1.438-.252c-.353-.07-.475-.217-.477-.585v-1.17c0-.39.126-.553.514-.624l.095-.017c.426-.077.867-.158 1.3-.221.417-.062.682-.282.834-.693.206-.554.441-1.13.729-1.762.176-.392.15-.72-.08-1.037a43.229 43.229 0 0 1-.794-1.132l-.046-.067c-.22-.316-.202-.507.072-.784.274-.278.552-.556.827-.827.275-.271.47-.292.786-.073l.212.145c.314.217.638.442.947.67.343.257.7.284 1.12.09.53-.248 1.097-.483 1.696-.7.428-.154.655-.42.718-.839.067-.452.152-.929.257-1.458.067-.326.218-.449.56-.452h1.171c.433 0 .58.127.652.559.033.2.068.4.104.6.045.265.088.53.136.802.061.376.278.63.662.774.603.227 1.204.475 1.787.737.388.177.717.148 1.035-.084.385-.28.786-.556 1.172-.823l.027-.02c.31-.213.504-.198.77.063.31.304.617.61.843.842.273.277.29.467.07.785l-.141.204c-.222.323-.453.656-.689.972-.235.316-.264.67-.08 1.078.264.575.504 1.154.705 1.718.155.425.423.652.843.714.479.07.977.16 1.48.265.292.06.42.213.425.513.008.452.008.898 0 1.325-.005.265-.109.406-.37.497l-.059.018a.835.835 0 0 0-.594 1.036.835.835 0 0 0 .942.561c.41-.082.789-.28 1.09-.57.367-.353.522-.795.624-1.187l.007-.028v-1.994l-.026-.078Z" fill="#000"/><path d="M18.545 14.274a3.816 3.816 0 0 1-.317-.353 2.114 2.114 0 0 1-.44-1.423c.06-1.064-.075-2-.416-2.865-.916-2.326-3.473-3.907-5.947-3.677-.661.062-1.122.442-1.266 1.052-.118.495.02.944.406 1.337l.15.152c.459.465.933.946 1.395 1.423.285.294.319.644.088.893-.424.45-.894.91-1.4 1.37a.595.595 0 0 1-.785-.024c-.093-.082-.176-.172-.274-.265-.035-.036-.07-.074-.107-.109l-.427-.434a29.98 29.98 0 0 0-.993-.985c-.376-.354-.862-.434-1.37-.237-.506.197-.804.573-.853 1.065-.215 2.14.508 3.917 2.15 5.284a5.581 5.581 0 0 0 3.968 1.315c.851-.044 1.531.237 2.14.883a206.1 206.1 0 0 0 2.569 2.661l.951.977a.958.958 0 0 0 .685.313c.203 0 .398-.08.543-.222a.779.779 0 0 0 .242-.547.966.966 0 0 0-.294-.682l-.828-.855a545.074 545.074 0 0 0-2.861-2.937 4.709 4.709 0 0 0-.823-.663c-.832-.53-1.764-.581-2.484-.563a4.258 4.258 0 0 1-2.982-1.117 4.271 4.271 0 0 1-1.377-2.875c0-.045 0-.088-.005-.136l.078.081c.353.365.72.742 1.088 1.106.97.964 2.338.978 3.324.034.37-.354.747-.723 1.155-1.13 1.002-1 1.012-2.357.025-3.377-.28-.289-.562-.576-.845-.862l-.294-.298c1.514.07 3.005 1.046 3.642 2.425.317.652.458 1.375.408 2.099-.102 1.32.316 2.427 1.279 3.388.818.816 1.635 1.664 2.424 2.484l1.085 1.123.014.014c.067.073.14.14.219.198a.807.807 0 0 0 .76.1.813.813 0 0 0 .5-.589c.064-.297-.026-.564-.273-.818-1.248-1.28-2.48-2.55-3.627-3.734Z" fill="#000"/></svg>