<svg width="98" height="22" viewBox="0 0 98 22" fill="none" xmlns="http://www.w3.org/2000/svg">
<path d="M80.1053 9.35745C79.7092 9.08039 79.8977 8.45837 80.381 8.44785L85.2207 8.34252C85.4369 8.33782 85.6255 8.1947 85.6883 7.98778L87.0989 3.33762C87.2398 2.87338 87.8928 2.86155 88.0503 3.3204L89.6236 7.90244C89.6942 8.10821 89.8899 8.24468 90.1074 8.23994L94.9368 8.13484C95.4209 8.1243 95.6358 8.73909 95.2507 9.03246L91.3853 11.977C91.2138 12.1077 91.1454 12.3335 91.2154 12.5373L92.794 17.1307C92.9514 17.5885 92.4313 17.9804 92.0346 17.7029L88.0765 14.9344C87.8983 14.8097 87.6599 14.8146 87.4869 14.9464L83.633 17.8822C83.2471 18.1762 82.7107 17.8036 82.8515 17.3393L84.263 12.6863C84.3258 12.4793 84.2484 12.2554 84.0711 12.1314L80.1053 9.35745Z" fill="#ffba1f"/>
<path d="M61.11 9.35745C60.7139 9.08039 60.9024 8.45837 61.3857 8.44785L66.2254 8.34252C66.4416 8.33782 66.6302 8.1947 66.693 7.98778L68.1036 3.33762C68.2445 2.87338 68.8975 2.86155 69.055 3.3204L70.6283 7.90244C70.6989 8.10821 70.8946 8.24468 71.1121 8.23994L75.9415 8.13484C76.4256 8.1243 76.6405 8.73909 76.2554 9.03246L72.39 11.977C72.2185 12.1077 72.1501 12.3335 72.2201 12.5373L73.7987 17.1307C73.9561 17.5885 73.436 17.9804 73.0393 17.7029L69.0812 14.9344C68.903 14.8097 68.6646 14.8146 68.4916 14.9464L64.6377 17.8822C64.2518 18.1762 63.7154 17.8036 63.8562 17.3393L65.2677 12.6863C65.3305 12.4793 65.2531 12.2554 65.0758 12.1314L61.11 9.35745Z" fill="#ffba1f"/>
<path d="M42.0152 9.35745C41.6191 9.08039 41.8076 8.45837 42.2909 8.44785L47.1306 8.34252C47.3468 8.33782 47.5355 8.1947 47.5982 7.98778L49.0089 3.33762C49.1497 2.87338 49.8027 2.86155 49.9602 3.3204L51.5335 7.90244C51.6042 8.10821 51.7998 8.24468 52.0173 8.23994L56.8468 8.13484C57.3308 8.1243 57.5457 8.73909 57.1606 9.03246L53.2952 11.977C53.1237 12.1077 53.0553 12.3335 53.1253 12.5373L54.7039 17.1307C54.8613 17.5885 54.3412 17.9804 53.9445 17.7029L49.9864 14.9344C49.8082 14.8097 49.5698 14.8146 49.3968 14.9464L45.5429 17.8822C45.157 18.1762 44.6206 17.8036 44.7614 17.3393L46.1729 12.6863C46.2357 12.4793 46.1583 12.2554 45.9811 12.1314L42.0152 9.35745Z" fill="#ffba1f"/>
<path d="M22.9204 9.35745C22.5243 9.08039 22.7128 8.45837 23.1961 8.44785L28.0359 8.34252C28.252 8.33782 28.4407 8.1947 28.5034 7.98778L29.9141 3.33762C30.0549 2.87338 30.7079 2.86155 30.8654 3.3204L32.4387 7.90244C32.5094 8.10821 32.705 8.24468 32.9225 8.23994L37.752 8.13484C38.236 8.1243 38.451 8.73909 38.0658 9.03246L34.2004 11.977C34.029 12.1077 33.9605 12.3335 34.0306 12.5373L35.6092 17.1307C35.7665 17.5885 35.2464 17.9804 34.8497 17.7029L30.8916 14.9344C30.7134 14.8097 30.4751 14.8146 30.3021 14.9464L26.4481 17.8822C26.0622 18.1762 25.5258 17.8036 25.6667 17.3393L27.0782 12.6863C27.141 12.4793 27.0635 12.2554 26.8863 12.1314L22.9204 9.35745Z" fill="#ffba1f"/>
<path d="M3.82562 9.35745C3.42951 9.08039 3.61804 8.45837 4.10132 8.44785L8.94108 8.34252C9.15725 8.33782 9.3459 8.1947 9.40867 7.98778L10.8193 3.33762C10.9601 2.87338 11.6131 2.86155 11.7707 3.3204L13.3439 7.90244C13.4146 8.10821 13.6102 8.24468 13.8277 8.23994L18.6572 8.13484C19.1412 8.1243 19.3562 8.73909 18.9711 9.03246L15.1056 11.977C14.9342 12.1077 14.8657 12.3335 14.9358 12.5373L16.5144 17.1307C16.6717 17.5885 16.1516 17.9804 15.7549 17.7029L11.7968 14.9344C11.6186 14.8097 11.3803 14.8146 11.2073 14.9464L7.35334 17.8822C6.96742 18.1762 6.43105 17.8036 6.57188 17.3393L7.98338 12.6863C8.04617 12.4793 7.96874 12.2554 7.7915 12.1314L3.82562 9.35745Z" fill="#ffba1f"/>
</svg>
