<svg xmlns="http://www.w3.org/2000/svg" width="39" height="41" fill="none"><g clip-path="url(#a)"><path fill="#61D026" d="M19.832 0a38.836 38.836 0 0 0 7.19 2.557 42.251 42.251 0 0 0 10.324 1.298c1.036 0 1.503.473 1.515 1.5.05 4.193.174 8.39.13 12.582-.065 6.211-2.36 11.588-6.66 16.106-3.41 3.584-7.583 5.901-12.461 6.924-.518.107-1.128-.045-1.66-.198C9.203 38.189 3.396 32.453.79 23.56c-.58-1.985-.788-4.033-.788-6.104V5.313c0-.982.494-1.473 1.5-1.476C7.652 3.82 13.535 2.592 19.127.045c.022-.01.037-.036.055-.055l.65.01ZM2.602 6.459V17.675c0 1.514.135 3.023.52 4.485 2.21 8.418 7.537 13.85 16.052 16.197.22.055.452.055.673 0 9.701-2.356 16.593-11.044 16.557-20.897-.013-3.54-.083-7.078-.127-10.617 0-.141-.015-.282-.024-.423-.855-.054-1.664-.098-2.472-.162A43.696 43.696 0 0 1 20.1 2.93a1.358 1.358 0 0 0-1.176-.005 42.92 42.92 0 0 1-12.106 3.18c-1.384.15-2.77.235-4.216.355Z"/><path fill="#BDBDBD" d="M19.493 25.526a7.24 7.24 0 0 1-2.444-.458.502.502 0 0 0-.356.03c-.49.245-.97.511-1.452.77-.215.115-.438.208-.664.043-.226-.165-.237-.386-.186-.622.109-.508.235-1.006.333-1.513a.433.433 0 0 0-.088-.332c-2.096-2.323-2.201-5.773-.182-8.153 1.484-1.749 3.454-2.482 5.774-2.249 2.855.287 5.037 2.175 5.622 4.88.814 3.762-1.788 7.101-5.495 7.533-.284.037-.573.054-.862.071Zm3.32-5.095c.323 0 .633-.123.863-.343.23-.22.36-.518.364-.83 0-.313-.128-.613-.357-.835a1.264 1.264 0 0 0-1.737-.008c-.115.111-.207.242-.27.387a1.15 1.15 0 0 0-.094.456c.001.155.034.309.096.451.063.143.154.273.268.381a1.258 1.258 0 0 0 .867.34Zm-6.6 0a1.256 1.256 0 0 0 .866-.342c.114-.11.204-.239.266-.382.062-.143.094-.296.095-.451a1.15 1.15 0 0 0-.368-.84 1.265 1.265 0 0 0-1.733.015c-.227.22-.354.52-.354.83.003.313.134.61.365.83.23.219.54.34.863.339Zm4.517-1.178a1.135 1.135 0 0 0-.353-.833 1.244 1.244 0 0 0-.862-.343 1.245 1.245 0 0 0-.865.335 1.167 1.167 0 0 0-.267.38 1.133 1.133 0 0 0-.094.45 1.13 1.13 0 0 0 .353.844c.114.11.25.198.4.257.15.058.311.087.473.084a1.244 1.244 0 0 0 .862-.341 1.132 1.132 0 0 0 .353-.832Z"/><path fill="#BDBDBD" d="M21.642 27.85v.269a.887.887 0 0 1-.877.874c-.837.01-1.674.01-2.511 0-.501-.005-.869-.387-.883-.894a8.584 8.584 0 0 1 0-.507.888.888 0 0 1 .548-.821.88.88 0 0 1 .34-.066c.465-.008.927-.004 1.395 0 1.83.007 3.42-.637 4.812-1.794a6.98 6.98 0 0 0 2.108-2.903c.183-.482.232-1.014.324-1.53.085-.465.142-.935.213-1.404.156-1.015-.115-1.97-.485-2.89-1.265-3.15-4.366-5.059-7.748-4.804-3.579.269-6.556 3.129-7 6.695-.075.606.058 1.178.138 1.761.146 1.055.32 2.106.473 3.16.09.623-.098.93-.703 1.1a4.12 4.12 0 0 1-1.096.184c-.832-.006-1.414-.498-1.828-1.158-.993-1.577-1.127-3.258-.407-4.97.354-.84 1.019-1.4 1.933-1.61.14-.025.28-.041.421-.05.02-.047.046-.106.067-.169 1.265-3.572 3.759-5.722 7.506-6.239 4.384-.603 8.395 2.089 9.715 6.154.05.155.084.28.303.293 1.225.07 1.911.835 2.272 1.907.582 1.731.41 3.39-.683 4.893-.389.535-.91.938-1.602.954-.378.01-.76-.118-1.14-.195-.125-.026-.213-.04-.302.085-1.287 1.84-3.019 3.044-5.183 3.636-.032.008-.063.02-.12.04Z"/></g><defs><clipPath id="a"><path fill="#fff" d="M0 0h39v41H0z"/></clipPath></defs></svg>