<svg width="24" height="24" viewBox="0 0 24 24" fill="none" xmlns="http://www.w3.org/2000/svg">
<path d="M18.8775 17.8825H14.445V16.345H18.8775V17.8825ZM16.4325 11.7025H16.8975L13.7925 20.5H12.0675L15.81 10H17.5125L21.2625 20.5H19.53L16.4325 11.7025Z" fill="#007CBA"/>
<g clip-path="url(#clip0_607_2358)">
<path d="M3 6H9.5M9.5 6V3M9.5 6H16" stroke="#007CBA" stroke-width="1.5"/>
<mask id="mask0_607_2358" style="mask-type:alpha" maskUnits="userSpaceOnUse" x="2" y="5" width="17" height="15">
<path d="M10 8H4.5H2.5V20H10.5L14.5 9.5L18.5 5.5H12L10 8Z" fill="#D9D9D9"/>
</mask>
<g mask="url(#mask0_607_2358)">
<path d="M14 5C13 9.5 9 13 5.5 16.5M6 7C7 10.5 13 16.5 16 18" stroke="#007CBA" stroke-width="1.5"/>
</g>
</g>
<defs>
<clipPath id="clip0_607_2358">
<rect width="16" height="17" fill="white" transform="translate(2.5 3)"/>
</clipPath>
</defs>
</svg>
