<svg width="24" height="24" viewBox="0 0 24 24" fill="none" xmlns="http://www.w3.org/2000/svg">
<path d="M16 10H20C20.6 10 21 9.6 21 9V5C21 4.4 20.6 4 20 4H16C15.4 4 15 4.4 15 5V9C15 9.6 15.4 10 16 10ZM8 14H4C3.4 14 3 14.4 3 15V19C3 19.6 3.4 20 4 20H8C8.6 20 9 19.6 9 19V15C9 14.4 8.6 14 8 14ZM18 11.4L14.5 15L15.6 16.1L17.3 14.4C17.2 15.5 17 16.7 16.4 17.3C16.1 17.6 15.7 17.8 15.1 17.8H10.6V19.3H15C15.9 19.3 16.7 19 17.3 18.4C18.3 17.4 18.6 15.7 18.7 14.4L20.5 16.2L21.6 15.1L18 11.4ZM6.8 9.7C6.9 8.6 7.1 7.4 7.7 6.8C8.1 6.4 8.5 6.2 9 6.2H13.5V4.8H9C8.1 4.8 7.3 5.1 6.7 5.7C5.7 6.7 5.4 8.4 5.3 9.7L3.5 8L2.5 9L6 12.6L9.5 9L8.5 8L6.8 9.7Z" fill="black"/>
</svg>
