<svg width="24" height="24" viewBox="0 0 24 24" fill="none" xmlns="http://www.w3.org/2000/svg">
<path d="M18.1724 17.2543H13.7399V15.7168H18.1724V17.2543ZM15.7274 11.0743H16.1924L13.0874 19.8718H11.3624L15.1049 9.37183H16.8074L20.5574 19.8718H18.8249L15.7274 11.0743Z" fill="black"/>
<g clip-path="url(#clip0_578_5609)">
<path d="M4 6H10.5M10.5 6V3M10.5 6H17" stroke="black" stroke-width="1.5"/>
<mask id="mask0_578_5609" style="mask-type:alpha" maskUnits="userSpaceOnUse" x="3" y="5" width="17" height="15">
<path d="M11 8H5.5H3.5V20H11.5L15.5 9.5L19.5 5.5H13L11 8Z" fill="#D9D9D9"/>
</mask>
<g mask="url(#mask0_578_5609)">
<path d="M15 5C14 9.5 10 13 6.5 16.5M7 7C8 10.5 14 16.5 17 18" stroke="black" stroke-width="1.5"/>
</g>
</g>
<defs>
<clipPath id="clip0_578_5609">
<rect width="13.1282" height="13.9487" fill="white" transform="translate(3.5 3)"/>
</clipPath>
</defs>
</svg>
