<svg xmlns="http://www.w3.org/2000/svg" width="24" height="24" viewBox="0 0 24 24" fill="none">
  <path fill-rule="evenodd" clip-rule="evenodd" d="M13.4309 3.48835L15.3723 5.74982H15.3549H15.3351H15.3154H15.2957H15.2759H15.2562H15.2365H15.2167H15.197H15.1772H15.1575H15.1378H15.118H15.0983H15.0785H15.0588H15.039H15.0193H14.9995H14.9798H14.96H14.9402H14.9205H14.9007H14.881H14.8612H14.8414H14.8217H14.8019H14.7821H14.7624H14.7426H14.7228H14.7031H14.6833H14.6635H14.6438H14.624H14.6042H14.5844H14.5647H14.5449H14.5251H14.5053H14.4855H14.4658H14.446H14.4262H14.4064H14.3866H14.3668H14.3471H14.3273H14.3075H14.2877H14.2679H14.2481H14.2283H14.2086H14.1888H14.169H14.1492H14.1294H14.1096H14.0898H14.07H14.0502H14.0304H14.0106H13.9908H13.971H13.9512H13.9315H13.9117H13.8919H13.8721H13.8523H13.8325H13.8127H13.7929H13.7731H13.7533H13.7335H13.7137H13.6939H13.6741H13.6543H13.6345H13.6147H13.5949H13.5751H13.5553H13.5355H13.5157H13.4959H13.4761H13.4563H13.4365H13.4167H13.3969H13.3771H13.3573H13.3376H13.3178H13.298H13.2782H13.2584H13.2386H13.2188H13.199H13.1792H13.1594H13.1396H13.1198H13.1H13.0802H13.0604H13.0407H13.0209H13.0011H12.9813H12.9615H12.9417H12.9219H12.9021H12.8824H12.8626H12.8428H12.823H12.8032H12.7834H12.7637H12.7439H12.7241H12.7043H12.6845H12.6648H12.645H12.6252H12.6054H12.5857H12.5659H12.5461H12.5264H12.5066H12.4868H12.4671H12.4473H12.4275H12.4078H12.388H12.3682H12.3485H12.3287H12.309H12.2892H12.2694H12.2497H12.2299H12.2102H12.1904H12.1707H12.1509H12.1312H12.1114H12.0917H12.072H12.0522H12.0325H12.0127H11.993H11.9733H11.9535H11.9338H11.9141H11.8943H11.8746H11.8549H11.8352H11.8154H11.7957H11.776H11.7563H11.7366H11.7169H11.6971H11.6774H11.6577H11.638H11.6183H11.5986H11.5789H11.5592H11.5395H11.5198H11.5001H11.4804H11.4607H11.441H11.4214H11.4017H11.382H11.3623H11.3426H11.323H11.3033H11.2836H11.2639H11.2443H11.2246H11.2049H11.1853H11.1656H11.146H11.1263H11.1067H11.087H11.0674H11.0477H11.0281H11.0084H10.9888H10.9692H10.9495H10.9299H10.9103H10.8906H10.871H10.8514H10.8318H10.8122H10.7926H10.7729H10.7533H10.7337H10.7141H10.6945H10.6749H10.6553H10.6358H10.6162H10.5966H10.577H10.5574H10.5378H10.5183H10.4987H10.4791H10.4596H10.44H10.4204H10.4009H10.3813H10.3618H10.3422H10.3227H10.3031H10.2836H10.2641H10.2445H10.225H10.2055H10.1859H10.1664H10.1469H10.1274H10.1079H10.0884H10.0689H10.0494H10.0299H10.0104H9.99087H9.97138H9.9519H9.93242H9.91294H9.89346H9.87399H9.85452H9.83506H9.8156H9.79614H9.77669H9.75724H9.73779H9.71835H9.69891H9.67947H9.66004H9.64061H9.62118H9.60176H9.58234H9.56293H9.54352H9.52411H9.50471H9.48531H9.46591H9.44652H9.42713H9.40775H9.38837H9.369H9.34962H9.33026H9.31089H9.29153H9.27217H9.25282H9.23347H9.21413H9.19479H9.17545H9.15612H9.13679H9.11747H9.09815H9.07883H9.05952H9.04022H9.02091H9.00161H8.98232H8.96303H8.94374H8.92446H8.90518H8.88591H8.86664H8.84738H8.82812H8.80886H8.78961H8.77037H8.75113H8.73189H8.71266H8.69343H8.6742H8.65498H8.63577H8.61656H8.59735H8.57815H8.55896H8.53976H8.52058H8.5014H8.48222H8.46305H8.44388H8.42471H8.40556H8.3864H8.36725H8.34811H8.32897H8.30984H8.29071H8.27158H8.25246H8.23335H8.21424H8.19514H8.17604H8.15694H8.13785H8.11877H8.09969H8.08062H8.06155H8.04248H8.02343H8.00437H7.98532H7.96628H7.94724H7.92821H7.90918H7.89016H7.87115H7.85213H7.83313H7.81413H7.79513H7.77614H7.75716H7.73818H7.71921H7.70024H7.68127H7.66232H7.64337H7.62442H7.60548H7.58654H7.56762H7.54869H7.52977H7.51086H7.49195H7.47305H7.45416H7.43527H7.41638H7.39751H7.37863H7.35977H7.34091H7.32205H7.3032H7.28436H7.26552H7.24669H7.22787H7.20905H7.19023H7.17142H7.15262H7.13383H7.11504H7.09625H7.07748H7.05871H7.03994H7.02118H7.00243C6.00368 5.74982 5.22031 6.11022 4.64466 6.70462C4.09039 7.27694 3.77001 8.0222 3.57756 8.74413C3.23546 10.0274 3.24561 11.4616 3.25122 12.2543C3.25186 12.3449 3.25244 12.4271 3.25243 12.4997L4.75243 12.4999C4.75244 12.4189 4.75199 12.3317 4.75151 12.2392C4.7473 11.4272 4.74096 10.2033 5.02694 9.13051C5.18438 8.53994 5.41392 8.06645 5.72218 7.74815C6.00906 7.45192 6.40083 7.24982 7.00243 7.24982H7.02118H7.03994H7.05871H7.07748H7.09625H7.11504H7.13383H7.15262H7.17142H7.19023H7.20905H7.22787H7.24669H7.26552H7.28436H7.3032H7.32205H7.34091H7.35977H7.37863H7.39751H7.41638H7.43527H7.45416H7.47305H7.49195H7.51086H7.52977H7.54869H7.56762H7.58654H7.60548H7.62442H7.64337H7.66232H7.68127H7.70024H7.71921H7.73818H7.75716H7.77614H7.79513H7.81413H7.83313H7.85213H7.87115H7.89016H7.90918H7.92821H7.94724H7.96628H7.98532H8.00437H8.02343H8.04248H8.06155H8.08062H8.09969H8.11877H8.13785H8.15694H8.17604H8.19514H8.21424H8.23335H8.25246H8.27158H8.29071H8.30984H8.32897H8.34811H8.36725H8.3864H8.40556H8.42471H8.44388H8.46305H8.48222H8.5014H8.52058H8.53976H8.55896H8.57815H8.59735H8.61656H8.63577H8.65498H8.6742H8.69343H8.71266H8.73189H8.75113H8.77037H8.78961H8.80886H8.82812H8.84738H8.86664H8.88591H8.90518H8.92446H8.94374H8.96303H8.98232H9.00161H9.02091H9.04022H9.05952H9.07883H9.09815H9.11747H9.13679H9.15612H9.17545H9.19479H9.21413H9.23347H9.25282H9.27217H9.29153H9.31089H9.33026H9.34962H9.369H9.38837H9.40775H9.42713H9.44652H9.46591H9.48531H9.50471H9.52411H9.54352H9.56293H9.58234H9.60176H9.62118H9.64061H9.66004H9.67947H9.69891H9.71835H9.73779H9.75724H9.77669H9.79614H9.8156H9.83506H9.85452H9.87399H9.89346H9.91294H9.93242H9.9519H9.97138H9.99087H10.0104H10.0299H10.0494H10.0689H10.0884H10.1079H10.1274H10.1469H10.1664H10.1859H10.2055H10.225H10.2445H10.2641H10.2836H10.3031H10.3227H10.3422H10.3618H10.3813H10.4009H10.4204H10.44H10.4596H10.4791H10.4987H10.5183H10.5378H10.5574H10.577H10.5966H10.6162H10.6358H10.6553H10.6749H10.6945H10.7141H10.7337H10.7533H10.7729H10.7926H10.8122H10.8318H10.8514H10.871H10.8906H10.9103H10.9299H10.9495H10.9692H10.9888H11.0084H11.0281H11.0477H11.0674H11.087H11.1067H11.1263H11.146H11.1656H11.1853H11.2049H11.2246H11.2443H11.2639H11.2836H11.3033H11.323H11.3426H11.3623H11.382H11.4017H11.4214H11.441H11.4607H11.4804H11.5001H11.5198H11.5395H11.5592H11.5789H11.5986H11.6183H11.638H11.6577H11.6774H11.6971H11.7169H11.7366H11.7563H11.776H11.7957H11.8154H11.8352H11.8549H11.8746H11.8943H11.9141H11.9338H11.9535H11.9733H11.993H12.0127H12.0325H12.0522H12.072H12.0917H12.1114H12.1312H12.1509H12.1707H12.1904H12.2102H12.2299H12.2497H12.2694H12.2892H12.309H12.3287H12.3485H12.3682H12.388H12.4078H12.4275H12.4473H12.4671H12.4868H12.5066H12.5264H12.5461H12.5659H12.5857H12.6054H12.6252H12.645H12.6648H12.6845H12.7043H12.7241H12.7439H12.7637H12.7834H12.8032H12.823H12.8428H12.8626H12.8824H12.9021H12.9219H12.9417H12.9615H12.9813H13.0011H13.0209H13.0407H13.0604H13.0802H13.1H13.1198H13.1396H13.1594H13.1792H13.199H13.2188H13.2386H13.2584H13.2782H13.298H13.3178H13.3376H13.3573H13.3771H13.3969H13.4167H13.4365H13.4563H13.4761H13.4959H13.5157H13.5355H13.5553H13.5751H13.5949H13.6147H13.6345H13.6543H13.6741H13.6939H13.7137H13.7335H13.7533H13.7731H13.7929H13.8127H13.8325H13.8523H13.8721H13.8919H13.9117H13.9315H13.9512H13.971H13.9908H14.0106H14.0304H14.0502H14.07H14.0898H14.1096H14.1294H14.1492H14.169H14.1888H14.2086H14.2283H14.2481H14.2679H14.2877H14.3075H14.3273H14.3471H14.3668H14.3866H14.4064H14.4262H14.446H14.4658H14.4855H14.5053H14.5251H14.5449H14.5647H14.5844H14.6042H14.624H14.6438H14.6635H14.6833H14.7031H14.7228H14.7426H14.7624H14.7821H14.8019H14.8217H14.8414H14.8612H14.881H14.9007H14.9205H14.9402H14.96H14.9798H14.9995H15.0193H15.039H15.0588H15.0785H15.0983H15.118H15.1378H15.1575H15.1772H15.192L13.4701 8.96908L14.5299 10.0306L17.5346 7.03056L18.0268 6.53908L17.5737 6.01129L14.5691 2.51129L13.4309 3.48835ZM10.5694 20.0117L8.63065 17.7498H8.64977H8.6695H8.68923H8.70896H8.7287H8.74843H8.76817H8.7879H8.80764H8.82738H8.84713H8.86687H8.88662H8.90636H8.92611H8.94586H8.96561H8.98536H9.00511H9.02487H9.04462H9.06438H9.08414H9.1039H9.12366H9.14342H9.16318H9.18295H9.20271H9.22248H9.24224H9.26201H9.28178H9.30155H9.32132H9.34109H9.36087H9.38064H9.40042H9.42019H9.43997H9.45974H9.47952H9.4993H9.51908H9.53886H9.55864H9.57843H9.59821H9.61799H9.63778H9.65756H9.67735H9.69713H9.71692H9.73671H9.7565H9.77629H9.79607H9.81586H9.83565H9.85544H9.87524H9.89503H9.91482H9.93461H9.95441H9.9742H9.99399H10.0138H10.0336H10.0534H10.0732H10.093H10.1128H10.1326H10.1524H10.1722H10.1919H10.2117H10.2315H10.2513H10.2711H10.2909H10.3107H10.3305H10.3503H10.3701H10.3899H10.4097H10.4295H10.4493H10.4691H10.4889H10.5087H10.5285H10.5483H10.5681H10.5879H10.6077H10.6275H10.6473H10.6671H10.6869H10.7067H10.7265H10.7463H10.766H10.7858H10.8056H10.8254H10.8452H10.865H10.8848H10.9046H10.9244H10.9442H10.964H10.9838H11.0035H11.0233H11.0431H11.0629H11.0827H11.1025H11.1223H11.1421H11.1618H11.1816H11.2014H11.2212H11.241H11.2607H11.2805H11.3003H11.3201H11.3399H11.3596H11.3794H11.3992H11.419H11.4387H11.4585H11.4783H11.498H11.5178H11.5376H11.5573H11.5771H11.5969H11.6166H11.6364H11.6561H11.6759H11.6957H11.7154H11.7352H11.7549H11.7747H11.7944H11.8142H11.8339H11.8537H11.8734H11.8932H11.9129H11.9327H11.9524H11.9721H11.9919H12.0116H12.0314H12.0511H12.0708H12.0906H12.1103H12.13H12.1497H12.1695H12.1892H12.2089H12.2286H12.2483H12.2681H12.2878H12.3075H12.3272H12.3469H12.3666H12.3863H12.406H12.4257H12.4454H12.4651H12.4848H12.5045H12.5242H12.5439H12.5636H12.5833H12.603H12.6226H12.6423H12.662H12.6817H12.7013H12.721H12.7407H12.7604H12.78H12.7997H12.8193H12.839H12.8587H12.8783H12.898H12.9176H12.9373H12.9569H12.9765H12.9962H13.0158H13.0355H13.0551H13.0747H13.0944H13.114H13.1336H13.1532H13.1728H13.1925H13.2121H13.2317H13.2513H13.2709H13.2905H13.3101H13.3297H13.3493H13.3689H13.3885H13.408H13.4276H13.4472H13.4668H13.4864H13.5059H13.5255H13.5451H13.5646H13.5842H13.6038H13.6233H13.6429H13.6624H13.682H13.7015H13.721H13.7406H13.7601H13.7796H13.7992H13.8187H13.8382H13.8577H13.8772H13.8968H13.9163H13.9358H13.9553H13.9748H13.9943H14.0138H14.0332H14.0527H14.0722H14.0917H14.1112H14.1306H14.1501H14.1696H14.189H14.2085H14.2279H14.2474H14.2668H14.2863H14.3057H14.3252H14.3446H14.364H14.3834H14.4029H14.4223H14.4417H14.4611H14.4805H14.4999H14.5193H14.5387H14.5581H14.5775H14.5969H14.6163H14.6356H14.655H14.6744H14.6937H14.7131H14.7325H14.7518H14.7712H14.7905H14.8098H14.8292H14.8485H14.8678H14.8872H14.9065H14.9258H14.9451H14.9644H14.9837H15.003H15.0223H15.0416H15.0609H15.0802H15.0994H15.1187H15.138H15.1572H15.1765H15.1958H15.215H15.2343H15.2535H15.2727H15.292H15.3112H15.3304H15.3496H15.3689H15.3881H15.4073H15.4265H15.4457H15.4649H15.484H15.5032H15.5224H15.5416H15.5607H15.5799H15.5991H15.6182H15.6374H15.6565H15.6757H15.6948H15.7139H15.733H15.7522H15.7713H15.7904H15.8095H15.8286H15.8477H15.8668H15.8859H15.9049H15.924H15.9431H15.9621H15.9812H16.0003H16.0193H16.0383H16.0574H16.0764H16.0954H16.1145H16.1335H16.1525H16.1715H16.1905H16.2095H16.2285H16.2475H16.2664H16.2854H16.3044H16.3233H16.3423H16.3613H16.3802H16.3991H16.4181H16.437H16.4559H16.4748H16.4938H16.5127H16.5316H16.5505H16.5694H16.5882H16.6071H16.626H16.6449H16.6637H16.6826H16.7014H16.7203H16.7391H16.7579H16.7768H16.7956H16.8144H16.8332H16.852H16.8708H16.8896H16.9084H16.9271H16.9459H16.9647H16.9834H17.0022C18.0009 17.7498 18.7843 17.3894 19.36 16.795C19.9142 16.2227 20.2346 15.4774 20.4271 14.7555C20.7692 13.4722 20.759 12.038 20.7534 11.2454V11.2453C20.7528 11.1547 20.7522 11.0726 20.7522 10.9999L19.2522 10.9997C19.2522 11.0807 19.2526 11.1679 19.2531 11.2604C19.2573 12.0724 19.2637 13.2963 18.9777 14.3691C18.8202 14.9597 18.5907 15.4332 18.2824 15.7515C17.9956 16.0477 17.6038 16.2498 17.0022 16.2498H16.9834H16.9647H16.9459H16.9271H16.9084H16.8896H16.8708H16.852H16.8332H16.8144H16.7956H16.7768H16.7579H16.7391H16.7203H16.7014H16.6826H16.6637H16.6449H16.626H16.6071H16.5882H16.5694H16.5505H16.5316H16.5127H16.4938H16.4748H16.4559H16.437H16.4181H16.3991H16.3802H16.3613H16.3423H16.3233H16.3044H16.2854H16.2664H16.2475H16.2285H16.2095H16.1905H16.1715H16.1525H16.1335H16.1145H16.0954H16.0764H16.0574H16.0383H16.0193H16.0003H15.9812H15.9621H15.9431H15.924H15.9049H15.8859H15.8668H15.8477H15.8286H15.8095H15.7904H15.7713H15.7522H15.733H15.7139H15.6948H15.6757H15.6565H15.6374H15.6182H15.5991H15.5799H15.5607H15.5416H15.5224H15.5032H15.484H15.4649H15.4457H15.4265H15.4073H15.3881H15.3689H15.3496H15.3304H15.3112H15.292H15.2727H15.2535H15.2343H15.215H15.1958H15.1765H15.1572H15.138H15.1187H15.0994H15.0802H15.0609H15.0416H15.0223H15.003H14.9837H14.9644H14.9451H14.9258H14.9065H14.8872H14.8678H14.8485H14.8292H14.8098H14.7905H14.7712H14.7518H14.7325H14.7131H14.6937H14.6744H14.655H14.6356H14.6163H14.5969H14.5775H14.5581H14.5387H14.5193H14.4999H14.4805H14.4611H14.4417H14.4223H14.4029H14.3834H14.364H14.3446H14.3252H14.3057H14.2863H14.2668H14.2474H14.2279H14.2085H14.189H14.1696H14.1501H14.1306H14.1112H14.0917H14.0722H14.0527H14.0332H14.0138H13.9943H13.9748H13.9553H13.9358H13.9163H13.8968H13.8772H13.8577H13.8382H13.8187H13.7992H13.7796H13.7601H13.7406H13.721H13.7015H13.682H13.6624H13.6429H13.6233H13.6038H13.5842H13.5646H13.5451H13.5255H13.5059H13.4864H13.4668H13.4472H13.4276H13.408H13.3885H13.3689H13.3493H13.3297H13.3101H13.2905H13.2709H13.2513H13.2317H13.2121H13.1925H13.1728H13.1532H13.1336H13.114H13.0944H13.0747H13.0551H13.0355H13.0158H12.9962H12.9765H12.9569H12.9373H12.9176H12.898H12.8783H12.8587H12.839H12.8193H12.7997H12.78H12.7604H12.7407H12.721H12.7013H12.6817H12.662H12.6423H12.6226H12.603H12.5833H12.5636H12.5439H12.5242H12.5045H12.4848H12.4651H12.4454H12.4257H12.406H12.3863H12.3666H12.3469H12.3272H12.3075H12.2878H12.2681H12.2483H12.2286H12.2089H12.1892H12.1695H12.1497H12.13H12.1103H12.0906H12.0708H12.0511H12.0314H12.0116H11.9919H11.9721H11.9524H11.9327H11.9129H11.8932H11.8734H11.8537H11.8339H11.8142H11.7944H11.7747H11.7549H11.7352H11.7154H11.6957H11.6759H11.6561H11.6364H11.6166H11.5969H11.5771H11.5573H11.5376H11.5178H11.498H11.4783H11.4585H11.4387H11.419H11.3992H11.3794H11.3596H11.3399H11.3201H11.3003H11.2805H11.2607H11.241H11.2212H11.2014H11.1816H11.1618H11.1421H11.1223H11.1025H11.0827H11.0629H11.0431H11.0233H11.0035H10.9838H10.964H10.9442H10.9244H10.9046H10.8848H10.865H10.8452H10.8254H10.8056H10.7858H10.766H10.7463H10.7265H10.7067H10.6869H10.6671H10.6473H10.6275H10.6077H10.5879H10.5681H10.5483H10.5285H10.5087H10.4889H10.4691H10.4493H10.4295H10.4097H10.3899H10.3701H10.3503H10.3305H10.3107H10.2909H10.2711H10.2513H10.2315H10.2117H10.1919H10.1722H10.1524H10.1326H10.1128H10.093H10.0732H10.0534H10.0336H10.0138H9.99399H9.9742H9.95441H9.93461H9.91482H9.89503H9.87524H9.85544H9.83565H9.81586H9.79607H9.77629H9.7565H9.73671H9.71692H9.69713H9.67735H9.65756H9.63778H9.61799H9.59821H9.57843H9.55864H9.53886H9.51908H9.4993H9.47952H9.45974H9.43997H9.42019H9.40042H9.38064H9.36087H9.34109H9.32132H9.30155H9.28178H9.26201H9.24224H9.22248H9.20271H9.18295H9.16318H9.14342H9.12366H9.1039H9.08414H9.06438H9.04462H9.02487H9.00511H8.98536H8.96561H8.94586H8.92611H8.90636H8.88662H8.86687H8.84713H8.82738H8.81065L10.5303 14.5302L9.46966 13.4695L6.46966 16.4695L5.97855 16.9606L6.43054 17.4879L9.43055 20.9879L10.5694 20.0117Z" fill="#1E1E1E"/>
</svg>
